<svg xmlns="http://www.w3.org/2000/svg" width="640" height="420" viewBox="0 0 640 420">
<rect width="640" height="420" fill="white" stroke="black"/>
<defs><marker id="arrow" markerWidth="10" markerHeight="10" refX="6" refY="3" orient="auto"><path d="M0,0 L0,6 L7,3 z" fill="black"/></marker></defs>
<line x1="30" y1="210" x2="610" y2="210" stroke="black" marker-end="url(#arrow)"/>
<line x1="320" y1="390" x2="320" y2="30" stroke="black" marker-end="url(#arrow)"/>
<line x1="68" y1="206" x2="68" y2="214" stroke="black"/><text x="68" y="228" font-size="10" text-anchor="middle">-6</text>
<line x1="316" y1="402" x2="324" y2="402" stroke="black"/><text x="312" y="406" font-size="10" text-anchor="end">-6</text>
<line x1="110" y1="206" x2="110" y2="214" stroke="black"/><text x="110" y="228" font-size="10" text-anchor="middle">-5</text>
<line x1="316" y1="370" x2="324" y2="370" stroke="black"/><text x="312" y="374" font-size="10" text-anchor="end">-5</text>
<line x1="152" y1="206" x2="152" y2="214" stroke="black"/><text x="152" y="228" font-size="10" text-anchor="middle">-4</text>
<line x1="316" y1="338" x2="324" y2="338" stroke="black"/><text x="312" y="342" font-size="10" text-anchor="end">-4</text>
<line x1="194" y1="206" x2="194" y2="214" stroke="black"/><text x="194" y="228" font-size="10" text-anchor="middle">-3</text>
<line x1="316" y1="306" x2="324" y2="306" stroke="black"/><text x="312" y="310" font-size="10" text-anchor="end">-3</text>
<line x1="236" y1="206" x2="236" y2="214" stroke="black"/><text x="236" y="228" font-size="10" text-anchor="middle">-2</text>
<line x1="316" y1="274" x2="324" y2="274" stroke="black"/><text x="312" y="278" font-size="10" text-anchor="end">-2</text>
<line x1="278" y1="206" x2="278" y2="214" stroke="black"/><text x="278" y="228" font-size="10" text-anchor="middle">-1</text>
<line x1="316" y1="242" x2="324" y2="242" stroke="black"/><text x="312" y="246" font-size="10" text-anchor="end">-1</text>
<line x1="320" y1="206" x2="320" y2="214" stroke="black"/><text x="320" y="228" font-size="10" text-anchor="middle">0</text>
<line x1="316" y1="210" x2="324" y2="210" stroke="black"/><text x="312" y="214" font-size="10" text-anchor="end">0</text>
<line x1="362" y1="206" x2="362" y2="214" stroke="black"/><text x="362" y="228" font-size="10" text-anchor="middle">1</text>
<line x1="316" y1="178" x2="324" y2="178" stroke="black"/><text x="312" y="182" font-size="10" text-anchor="end">1</text>
<line x1="404" y1="206" x2="404" y2="214" stroke="black"/><text x="404" y="228" font-size="10" text-anchor="middle">2</text>
<line x1="316" y1="146" x2="324" y2="146" stroke="black"/><text x="312" y="150" font-size="10" text-anchor="end">2</text>
<line x1="446" y1="206" x2="446" y2="214" stroke="black"/><text x="446" y="228" font-size="10" text-anchor="middle">3</text>
<line x1="316" y1="114" x2="324" y2="114" stroke="black"/><text x="312" y="118" font-size="10" text-anchor="end">3</text>
<line x1="488" y1="206" x2="488" y2="214" stroke="black"/><text x="488" y="228" font-size="10" text-anchor="middle">4</text>
<line x1="316" y1="82" x2="324" y2="82" stroke="black"/><text x="312" y="86" font-size="10" text-anchor="end">4</text>
<line x1="530" y1="206" x2="530" y2="214" stroke="black"/><text x="530" y="228" font-size="10" text-anchor="middle">5</text>
<line x1="316" y1="50" x2="324" y2="50" stroke="black"/><text x="312" y="54" font-size="10" text-anchor="end">5</text>
<line x1="572" y1="206" x2="572" y2="214" stroke="black"/><text x="572" y="228" font-size="10" text-anchor="middle">6</text>
<line x1="316" y1="18" x2="324" y2="18" stroke="black"/><text x="312" y="22" font-size="10" text-anchor="end">6</text>
<polyline points="26.0,258.0 27.5,257.4 28.9,256.9 30.4,256.3 31.9,255.8 33.3,255.2 34.8,254.6 36.3,254.1 37.8,253.5 39.2,253.0 40.7,252.4 42.2,251.8 43.6,251.3 45.1,250.7 46.6,250.2 48.1,249.6 49.5,249.0 51.0,248.5 52.5,247.9 53.9,247.4 55.4,246.8 56.9,246.2 58.3,245.7 59.8,245.1 61.3,244.6 62.8,244.0 64.2,243.4 65.7,242.9 67.2,242.3 68.6,241.8 70.1,241.2 71.6,240.6 73.0,240.1 74.5,239.5 76.0,239.0 77.4,238.4 78.9,237.8 80.4,237.3 81.9,236.7 83.3,236.2 84.8,235.6 86.3,235.0 87.7,234.5 89.2,233.9 90.7,233.4 92.2,232.8 93.6,232.2 95.1,231.7 96.6,231.1 98.0,230.6 99.5,230.0 101.0,229.4 102.4,228.9 103.9,228.3 105.4,227.8 106.8,227.2 108.3,226.6 109.8,226.1 111.3,225.5 112.7,225.0 114.2,224.4 115.7,223.8 117.1,223.3 118.6,222.7 120.1,222.2 121.6,221.6 123.0,221.0 124.5,220.5 126.0,219.9 127.4,219.4 128.9,218.8 130.4,218.2 131.8,217.7 133.3,217.1 134.8,216.6 136.2,216.0 137.7,215.4 139.2,214.9 140.7,214.3 142.1,213.8 143.6,213.2 145.1,212.6 146.5,212.1 148.0,211.5 149.5,211.0 150.9,210.4 152.4,209.8 153.9,209.3 155.4,208.7 156.8,208.2 158.3,207.6 159.8,207.0 161.2,206.5 162.7,205.9 164.2,205.4 165.7,204.8 167.1,204.2 168.6,203.7 170.1,203.1 171.5,202.6 173.0,202.0 174.5,201.4 175.9,200.9 177.4,200.3 178.9,199.8 180.3,199.2 181.8,198.6 183.3,198.1 184.8,197.5 186.2,197.0 187.7,196.4 189.2,195.8 190.6,195.3 192.1,194.7 193.6,194.2 195.1,193.6 196.5,193.0 198.0,192.5 199.5,191.9 200.9,191.4 202.4,190.8 203.9,190.2 205.3,189.7 206.8,189.1 208.3,188.6 209.8,188.0 211.2,187.4 212.7,186.9 214.2,186.3 215.6,185.8 217.1,185.2 218.6,184.6 220.0,184.1 221.5,183.5 223.0,183.0 224.4,182.4 225.9,181.8 227.4,181.3 228.9,180.7 230.3,180.2 231.8,179.6 233.3,179.0 234.7,178.5 236.2,177.9 237.7,177.4 239.2,176.8 240.6,176.2 242.1,175.7 243.6,175.1 245.0,174.6 246.5,174.0 248.0,173.4 249.4,172.9 250.9,172.3 252.4,171.8 253.8,171.2 255.3,170.6 256.8,170.1 258.3,169.5 259.7,169.0 261.2,168.4 262.7,167.8 264.1,167.3 265.6,166.7 267.1,166.2 268.6,165.6 270.0,165.0 271.5,164.5 273.0,163.9 274.4,163.4 275.9,162.8 277.4,162.2 278.8,161.7 280.3,161.1 281.8,160.6 283.2,160.0 284.7,159.4 286.2,158.9 287.7,158.3 289.1,157.8 290.6,157.2 292.1,156.6 293.5,156.1 295.0,155.5 296.5,155.0 297.9,154.4 299.4,153.8 300.9,153.3 302.4,152.7 303.8,152.2 305.3,151.6 306.8,151.0 308.2,150.5 309.7,149.9 311.2,149.4 312.7,148.8 314.1,148.2 315.6,147.7 317.1,147.1 318.5,146.6 320.0,146.0 321.5,145.4 322.9,144.9 324.4,144.3 325.9,143.8 327.3,143.2 328.8,142.6 330.3,142.1 331.8,141.5 333.2,141.0 334.7,140.4 336.2,139.8 337.6,139.3 339.1,138.7 340.6,138.2 342.1,137.6 343.5,137.0 345.0,136.5 346.5,135.9 347.9,135.4 349.4,134.8 350.9,134.2 352.3,133.7 353.8,133.1 355.3,132.6 356.8,132.0 358.2,131.4 359.7,130.9 361.2,130.3 362.6,129.8 364.1,129.2 365.6,128.6 367.0,128.1 368.5,127.5 370.0,127.0 371.4,126.4 372.9,125.8 374.4,125.3 375.9,124.7 377.3,124.2 378.8,123.6 380.3,123.0 381.7,122.5 383.2,121.9 384.7,121.4 386.1,120.8 387.6,120.2 389.1,119.7 390.6,119.1 392.0,118.6 393.5,118.0 395.0,117.4 396.4,116.9 397.9,116.3 399.4,115.8 400.9,115.2 402.3,114.6 403.8,114.1 405.3,113.5 406.7,113.0 408.2,112.4 409.7,111.8 411.1,111.3 412.6,110.7 414.1,110.2 415.6,109.6 417.0,109.0 418.5,108.5 420.0,107.9 421.4,107.4 422.9,106.8 424.4,106.2 425.8,105.7 427.3,105.1 428.8,104.6 430.2,104.0 431.7,103.4 433.2,102.9 434.7,102.3 436.1,101.8 437.6,101.2 439.1,100.6 440.5,100.1 442.0,99.5 443.5,99.0 444.9,98.4 446.4,97.8 447.9,97.3 449.4,96.7 450.8,96.2 452.3,95.6 453.8,95.0 455.2,94.5 456.7,93.9 458.2,93.4 459.6,92.8 461.1,92.2 462.6,91.7 464.1,91.1 465.5,90.6 467.0,90.0 468.5,89.4 469.9,88.9 471.4,88.3 472.9,87.8 474.4,87.2 475.8,86.6 477.3,86.1 478.8,85.5 480.2,85.0 481.7,84.4 483.2,83.8 484.6,83.3 486.1,82.7 487.6,82.2 489.1,81.6 490.5,81.0 492.0,80.5 493.5,79.9 494.9,79.4 496.4,78.8 497.9,78.2 499.3,77.7 500.8,77.1 502.3,76.6 503.8,76.0 505.2,75.4 506.7,74.9 508.2,74.3 509.6,73.8 511.1,73.2 512.6,72.6 514.0,72.1 515.5,71.5 517.0,71.0 518.5,70.4 519.9,69.8 521.4,69.3 522.9,68.7 524.3,68.2 525.8,67.6 527.3,67.0 528.7,66.5 530.2,65.9 531.7,65.4 533.1,64.8 534.6,64.2 536.1,63.7 537.6,63.1 539.0,62.6 540.5,62.0 542.0,61.4 543.4,60.9 544.9,60.3 546.4,59.8 547.9,59.2 549.3,58.6 550.8,58.1 552.3,57.5 553.7,57.0 555.2,56.4 556.7,55.8 558.1,55.3 559.6,54.7 561.1,54.2 562.5,53.6 564.0,53.0 565.5,52.5 567.0,51.9 568.4,51.4 569.9,50.8 571.4,50.2 572.8,49.7 574.3,49.1 575.8,48.6 577.2,48.0 578.7,47.4 580.2,46.9 581.7,46.3 583.1,45.8 584.6,45.2 586.1,44.6 587.5,44.1 589.0,43.5 590.5,43.0 592.0,42.4 593.4,41.8 594.9,41.3 596.4,40.7 597.8,40.2 599.3,39.6 600.8,39.0 602.2,38.5 603.7,37.9 605.2,37.4 606.6,36.8 608.1,36.2 609.6,35.7 611.1,35.1 612.5,34.6 614.0,34.0" fill="none" stroke="#1f77b4" stroke-width="3"/>
<circle cx="404" cy="114" r="7" fill="white" stroke="black" stroke-width="2"/>
<circle cx="404" cy="242" r="6" fill="black"/>
<text x="320" y="22" text-anchor="middle" font-family="Arial" font-size="16">Hole and point value</text></svg>