<svg xmlns="http://www.w3.org/2000/svg" width="640" height="420" viewBox="0 0 640 420">
<rect width="640" height="420" fill="white" stroke="black"/>
<defs><marker id="arrow" markerWidth="10" markerHeight="10" refX="6" refY="3" orient="auto"><path d="M0,0 L0,6 L7,3 z" fill="black"/></marker></defs>
<line x1="30" y1="210" x2="610" y2="210" stroke="black" marker-end="url(#arrow)"/>
<line x1="320" y1="390" x2="320" y2="30" stroke="black" marker-end="url(#arrow)"/>
<line x1="68" y1="206" x2="68" y2="214" stroke="black"/><text x="68" y="228" font-size="10" text-anchor="middle">-6</text>
<line x1="316" y1="402" x2="324" y2="402" stroke="black"/><text x="312" y="406" font-size="10" text-anchor="end">-6</text>
<line x1="110" y1="206" x2="110" y2="214" stroke="black"/><text x="110" y="228" font-size="10" text-anchor="middle">-5</text>
<line x1="316" y1="370" x2="324" y2="370" stroke="black"/><text x="312" y="374" font-size="10" text-anchor="end">-5</text>
<line x1="152" y1="206" x2="152" y2="214" stroke="black"/><text x="152" y="228" font-size="10" text-anchor="middle">-4</text>
<line x1="316" y1="338" x2="324" y2="338" stroke="black"/><text x="312" y="342" font-size="10" text-anchor="end">-4</text>
<line x1="194" y1="206" x2="194" y2="214" stroke="black"/><text x="194" y="228" font-size="10" text-anchor="middle">-3</text>
<line x1="316" y1="306" x2="324" y2="306" stroke="black"/><text x="312" y="310" font-size="10" text-anchor="end">-3</text>
<line x1="236" y1="206" x2="236" y2="214" stroke="black"/><text x="236" y="228" font-size="10" text-anchor="middle">-2</text>
<line x1="316" y1="274" x2="324" y2="274" stroke="black"/><text x="312" y="278" font-size="10" text-anchor="end">-2</text>
<line x1="278" y1="206" x2="278" y2="214" stroke="black"/><text x="278" y="228" font-size="10" text-anchor="middle">-1</text>
<line x1="316" y1="242" x2="324" y2="242" stroke="black"/><text x="312" y="246" font-size="10" text-anchor="end">-1</text>
<line x1="320" y1="206" x2="320" y2="214" stroke="black"/><text x="320" y="228" font-size="10" text-anchor="middle">0</text>
<line x1="316" y1="210" x2="324" y2="210" stroke="black"/><text x="312" y="214" font-size="10" text-anchor="end">0</text>
<line x1="362" y1="206" x2="362" y2="214" stroke="black"/><text x="362" y="228" font-size="10" text-anchor="middle">1</text>
<line x1="316" y1="178" x2="324" y2="178" stroke="black"/><text x="312" y="182" font-size="10" text-anchor="end">1</text>
<line x1="404" y1="206" x2="404" y2="214" stroke="black"/><text x="404" y="228" font-size="10" text-anchor="middle">2</text>
<line x1="316" y1="146" x2="324" y2="146" stroke="black"/><text x="312" y="150" font-size="10" text-anchor="end">2</text>
<line x1="446" y1="206" x2="446" y2="214" stroke="black"/><text x="446" y="228" font-size="10" text-anchor="middle">3</text>
<line x1="316" y1="114" x2="324" y2="114" stroke="black"/><text x="312" y="118" font-size="10" text-anchor="end">3</text>
<line x1="488" y1="206" x2="488" y2="214" stroke="black"/><text x="488" y="228" font-size="10" text-anchor="middle">4</text>
<line x1="316" y1="82" x2="324" y2="82" stroke="black"/><text x="312" y="86" font-size="10" text-anchor="end">4</text>
<line x1="530" y1="206" x2="530" y2="214" stroke="black"/><text x="530" y="228" font-size="10" text-anchor="middle">5</text>
<line x1="316" y1="50" x2="324" y2="50" stroke="black"/><text x="312" y="54" font-size="10" text-anchor="end">5</text>
<line x1="572" y1="206" x2="572" y2="214" stroke="black"/><text x="572" y="228" font-size="10" text-anchor="middle">6</text>
<line x1="316" y1="18" x2="324" y2="18" stroke="black"/><text x="312" y="22" font-size="10" text-anchor="end">6</text>
<polyline points="26.0,146.0 27.5,146.0 28.9,146.0 30.4,146.0 31.9,146.0 33.3,146.0 34.8,146.0 36.3,146.0 37.8,146.0 39.2,146.0 40.7,146.0 42.2,146.0 43.6,146.0 45.1,146.0 46.6,146.0 48.1,146.0 49.5,146.0 51.0,146.0 52.5,146.0 53.9,146.0 55.4,146.0 56.9,146.0 58.3,146.0 59.8,146.0 61.3,146.0 62.8,146.0 64.2,146.0 65.7,146.0 67.2,146.0 68.6,146.0 70.1,146.0 71.6,146.0 73.0,146.0 74.5,146.0 76.0,146.0 77.4,146.0 78.9,146.0 80.4,146.0 81.9,146.0 83.3,146.0 84.8,146.0 86.3,146.0 87.7,146.0 89.2,146.0 90.7,146.0 92.2,146.0 93.6,146.0 95.1,146.0 96.6,146.0 98.0,146.0 99.5,146.0 101.0,146.0 102.4,146.0 103.9,146.0 105.4,146.0 106.8,146.0 108.3,146.0 109.8,146.0 111.3,146.0 112.7,146.0 114.2,146.0 115.7,146.0 117.1,146.0 118.6,146.0 120.1,146.0 121.6,146.0 123.0,146.0 124.5,146.0 126.0,146.0 127.4,146.0 128.9,146.0 130.4,146.0 131.8,146.0 133.3,146.0 134.8,146.0 136.2,146.0 137.7,146.0 139.2,146.0 140.7,146.0 142.1,146.0 143.6,146.0 145.1,146.0 146.5,146.0 148.0,146.0 149.5,146.0 150.9,146.0 152.4,146.0 153.9,146.0 155.4,146.0 156.8,146.0 158.3,146.0 159.8,146.0 161.2,146.0 162.7,146.0 164.2,146.0 165.7,146.0 167.1,146.0 168.6,146.0 170.1,146.0 171.5,146.0 173.0,146.0 174.5,146.0 175.9,146.0 177.4,146.0 178.9,146.0 180.3,146.0 181.8,146.0 183.3,146.0 184.8,146.0 186.2,146.0 187.7,146.0 189.2,146.0 190.6,146.0 192.1,146.0 193.6,146.0 195.1,146.0 196.5,146.0 198.0,146.0 199.5,146.0 200.9,146.0 202.4,146.0 203.9,146.0 205.3,146.0 206.8,146.0 208.3,146.0 209.8,146.0 211.2,146.0 212.7,146.0 214.2,146.0 215.6,146.0 217.1,146.0 218.6,146.0 220.0,146.0 221.5,146.0 223.0,146.0 224.4,146.0 225.9,146.0 227.4,146.0 228.9,146.0 230.3,146.0 231.8,146.0 233.3,146.0 234.7,146.0 236.2,178.0 237.7,178.0 239.2,178.0 240.6,178.0 242.1,178.0 243.6,178.0 245.0,178.0 246.5,178.0 248.0,178.0 249.4,178.0 250.9,178.0 252.4,178.0 253.8,178.0 255.3,178.0 256.8,178.0 258.3,178.0 259.7,178.0 261.2,178.0 262.7,178.0 264.1,178.0 265.6,178.0 267.1,178.0 268.6,178.0 270.0,178.0 271.5,178.0 273.0,178.0 274.4,178.0 275.9,178.0 277.4,178.0 278.8,178.0 280.3,178.0 281.8,178.0 283.2,178.0 284.7,178.0 286.2,178.0 287.7,178.0 289.1,178.0 290.6,178.0 292.1,178.0 293.5,178.0 295.0,178.0 296.5,178.0 297.9,178.0 299.4,178.0 300.9,178.0 302.4,178.0 303.8,178.0 305.3,178.0 306.8,178.0 308.2,178.0 309.7,178.0 311.2,178.0 312.7,178.0 314.1,178.0 315.6,178.0 317.1,178.0 318.5,178.0 320.0,178.0 321.5,178.0 322.9,178.0 324.4,178.0 325.9,178.0 327.3,178.0 328.8,178.0 330.3,178.0 331.8,178.0 333.2,178.0 334.7,178.0 336.2,178.0 337.6,178.0 339.1,178.0 340.6,178.0 342.1,178.0 343.5,178.0 345.0,178.0 346.5,178.0 347.9,178.0 349.4,178.0 350.9,178.0 352.3,178.0 353.8,178.0 355.3,178.0 356.8,178.0 358.2,178.0 359.7,178.0 361.2,178.0 362.6,178.0 364.1,178.0 365.6,178.0 367.0,178.0 368.5,178.0 370.0,178.0 371.4,178.0 372.9,178.0 374.4,178.0 375.9,178.0 377.3,178.0 378.8,178.0 380.3,178.0 381.7,178.0 383.2,178.0 384.7,178.0 386.1,178.0 387.6,178.0 389.1,178.0 390.6,178.0 392.0,178.0 393.5,178.0 395.0,178.0 396.4,178.0 397.9,178.0 399.4,178.0 400.9,178.0 402.3,178.0 403.8,178.0 405.3,114.5 406.7,115.0 408.2,115.6 409.7,116.2 411.1,116.7 412.6,117.3 414.1,117.8 415.6,118.4 417.0,119.0 418.5,119.5 420.0,120.1 421.4,120.6 422.9,121.2 424.4,121.8 425.8,122.3 427.3,122.9 428.8,123.4 430.2,124.0 431.7,124.6 433.2,125.1 434.7,125.7 436.1,126.2 437.6,126.8 439.1,127.4 440.5,127.9 442.0,128.5 443.5,129.0 444.9,129.6 446.4,130.2 447.9,130.7 449.4,131.3 450.8,131.8 452.3,132.4 453.8,133.0 455.2,133.5 456.7,134.1 458.2,134.6 459.6,135.2 461.1,135.8 462.6,136.3 464.1,136.9 465.5,137.4 467.0,138.0 468.5,138.6 469.9,139.1 471.4,139.7 472.9,140.2 474.4,140.8 475.8,141.4 477.3,141.9 478.8,142.5 480.2,143.0 481.7,143.6 483.2,144.2 484.6,144.7 486.1,145.3 487.6,145.8 489.1,146.4 490.5,147.0 492.0,147.5 493.5,148.1 494.9,148.6 496.4,149.2 497.9,149.8 499.3,150.3 500.8,150.9 502.3,151.4 503.8,152.0 505.2,152.6 506.7,153.1 508.2,153.7 509.6,154.2 511.1,154.8 512.6,155.4 514.0,155.9 515.5,156.5 517.0,157.0 518.5,157.6 519.9,158.2 521.4,158.7 522.9,159.3 524.3,159.8 525.8,160.4 527.3,161.0 528.7,161.5 530.2,162.1 531.7,162.6 533.1,163.2 534.6,163.8 536.1,164.3 537.6,164.9 539.0,165.4 540.5,166.0 542.0,166.6 543.4,167.1 544.9,167.7 546.4,168.2 547.9,168.8 549.3,169.4 550.8,169.9 552.3,170.5 553.7,171.0 555.2,171.6 556.7,172.2 558.1,172.7 559.6,173.3 561.1,173.8 562.5,174.4 564.0,175.0 565.5,175.5 567.0,176.1 568.4,176.6 569.9,177.2 571.4,177.8 572.8,178.3 574.3,178.9 575.8,179.4 577.2,180.0 578.7,180.6 580.2,181.1 581.7,181.7 583.1,182.2 584.6,182.8 586.1,183.4 587.5,183.9 589.0,184.5 590.5,185.0 592.0,185.6 593.4,186.2 594.9,186.7 596.4,187.3 597.8,187.8 599.3,188.4 600.8,189.0 602.2,189.5 603.7,190.1 605.2,190.6 606.6,191.2 608.1,191.8 609.6,192.3 611.1,192.9 612.5,193.4 614.0,194.0" fill="none" stroke="#1f77b4" stroke-width="3"/>
<circle cx="320" cy="146" r="7" fill="white" stroke="black" stroke-width="2"/>
<circle cx="320" cy="274" r="6" fill="black"/>
<text x="320" y="22" text-anchor="middle" font-family="Arial" font-size="16">Complete limit analysis</text></svg>