<svg xmlns="http://www.w3.org/2000/svg" width="640" height="420" viewBox="0 0 640 420">
<rect width="640" height="420" fill="white" stroke="black"/>
<defs><marker id="arrow" markerWidth="10" markerHeight="10" refX="6" refY="3" orient="auto"><path d="M0,0 L0,6 L7,3 z" fill="black"/></marker></defs>
<line x1="30" y1="210" x2="610" y2="210" stroke="black" marker-end="url(#arrow)"/>
<line x1="320" y1="390" x2="320" y2="30" stroke="black" marker-end="url(#arrow)"/>
<line x1="68" y1="206" x2="68" y2="214" stroke="black"/><text x="68" y="228" font-size="10" text-anchor="middle">-6</text>
<line x1="316" y1="402" x2="324" y2="402" stroke="black"/><text x="312" y="406" font-size="10" text-anchor="end">-6</text>
<line x1="110" y1="206" x2="110" y2="214" stroke="black"/><text x="110" y="228" font-size="10" text-anchor="middle">-5</text>
<line x1="316" y1="370" x2="324" y2="370" stroke="black"/><text x="312" y="374" font-size="10" text-anchor="end">-5</text>
<line x1="152" y1="206" x2="152" y2="214" stroke="black"/><text x="152" y="228" font-size="10" text-anchor="middle">-4</text>
<line x1="316" y1="338" x2="324" y2="338" stroke="black"/><text x="312" y="342" font-size="10" text-anchor="end">-4</text>
<line x1="194" y1="206" x2="194" y2="214" stroke="black"/><text x="194" y="228" font-size="10" text-anchor="middle">-3</text>
<line x1="316" y1="306" x2="324" y2="306" stroke="black"/><text x="312" y="310" font-size="10" text-anchor="end">-3</text>
<line x1="236" y1="206" x2="236" y2="214" stroke="black"/><text x="236" y="228" font-size="10" text-anchor="middle">-2</text>
<line x1="316" y1="274" x2="324" y2="274" stroke="black"/><text x="312" y="278" font-size="10" text-anchor="end">-2</text>
<line x1="278" y1="206" x2="278" y2="214" stroke="black"/><text x="278" y="228" font-size="10" text-anchor="middle">-1</text>
<line x1="316" y1="242" x2="324" y2="242" stroke="black"/><text x="312" y="246" font-size="10" text-anchor="end">-1</text>
<line x1="320" y1="206" x2="320" y2="214" stroke="black"/><text x="320" y="228" font-size="10" text-anchor="middle">0</text>
<line x1="316" y1="210" x2="324" y2="210" stroke="black"/><text x="312" y="214" font-size="10" text-anchor="end">0</text>
<line x1="362" y1="206" x2="362" y2="214" stroke="black"/><text x="362" y="228" font-size="10" text-anchor="middle">1</text>
<line x1="316" y1="178" x2="324" y2="178" stroke="black"/><text x="312" y="182" font-size="10" text-anchor="end">1</text>
<line x1="404" y1="206" x2="404" y2="214" stroke="black"/><text x="404" y="228" font-size="10" text-anchor="middle">2</text>
<line x1="316" y1="146" x2="324" y2="146" stroke="black"/><text x="312" y="150" font-size="10" text-anchor="end">2</text>
<line x1="446" y1="206" x2="446" y2="214" stroke="black"/><text x="446" y="228" font-size="10" text-anchor="middle">3</text>
<line x1="316" y1="114" x2="324" y2="114" stroke="black"/><text x="312" y="118" font-size="10" text-anchor="end">3</text>
<line x1="488" y1="206" x2="488" y2="214" stroke="black"/><text x="488" y="228" font-size="10" text-anchor="middle">4</text>
<line x1="316" y1="82" x2="324" y2="82" stroke="black"/><text x="312" y="86" font-size="10" text-anchor="end">4</text>
<line x1="530" y1="206" x2="530" y2="214" stroke="black"/><text x="530" y="228" font-size="10" text-anchor="middle">5</text>
<line x1="316" y1="50" x2="324" y2="50" stroke="black"/><text x="312" y="54" font-size="10" text-anchor="end">5</text>
<line x1="572" y1="206" x2="572" y2="214" stroke="black"/><text x="572" y="228" font-size="10" text-anchor="middle">6</text>
<line x1="316" y1="18" x2="324" y2="18" stroke="black"/><text x="312" y="22" font-size="10" text-anchor="end">6</text>
<polyline points="26.0,146.0 27.5,146.0 28.9,146.0 30.4,146.0 31.9,146.0 33.3,146.0 34.8,146.0 36.3,146.0 37.8,146.0 39.2,146.0 40.7,146.0 42.2,146.0 43.6,146.0 45.1,146.0 46.6,146.0 48.1,146.0 49.5,146.0 51.0,146.0 52.5,146.0 53.9,146.0 55.4,146.0 56.9,146.0 58.3,146.0 59.8,146.0 61.3,146.0 62.8,146.0 64.2,146.0 65.7,146.0 67.2,146.0 68.6,146.0 70.1,146.0 71.6,146.0 73.0,146.0 74.5,146.0 76.0,146.0 77.4,146.0 78.9,146.0 80.4,146.0 81.9,146.0 83.3,146.0 84.8,146.0 86.3,146.0 87.7,146.0 89.2,146.0 90.7,146.0 92.2,146.0 93.6,146.0 95.1,146.0 96.6,146.0 98.0,146.0 99.5,146.0 101.0,146.0 102.4,146.0 103.9,146.0 105.4,146.0 106.8,146.0 108.3,146.0 109.8,146.0 111.3,146.0 112.7,146.0 114.2,146.0 115.7,146.0 117.1,146.0 118.6,146.0 120.1,146.0 121.6,146.0 123.0,146.0 124.5,146.0 126.0,146.0 127.4,146.0 128.9,146.0 130.4,146.0 131.8,146.0 133.3,146.0 134.8,146.0 136.2,146.0 137.7,146.0 139.2,146.0 140.7,146.0 142.1,146.0 143.6,146.0 145.1,146.0 146.5,146.0 148.0,146.0 149.5,146.0 150.9,146.0 152.4,146.0 153.9,146.0 155.4,146.0 156.8,146.0 158.3,146.0 159.8,146.0 161.2,146.0 162.7,146.0 164.2,146.0 165.7,146.0 167.1,146.0 168.6,146.0 170.1,146.0 171.5,146.0 173.0,146.0 174.5,146.0 175.9,146.0 177.4,146.0 178.9,146.0 180.3,146.0 181.8,146.0 183.3,146.0 184.8,146.0 186.2,146.0 187.7,146.0 189.2,146.0 190.6,146.0 192.1,146.0 193.6,146.0 195.1,146.0 196.5,146.0 198.0,146.0 199.5,146.0 200.9,146.0 202.4,146.0 203.9,146.0 205.3,146.0 206.8,146.0 208.3,146.0 209.8,146.0 211.2,146.0 212.7,146.0 214.2,146.0 215.6,146.0 217.1,146.0 218.6,146.0 220.0,146.0 221.5,146.0 223.0,146.0 224.4,146.0 225.9,146.0 227.4,146.0 228.9,146.0 230.3,146.0 231.8,146.0 233.3,146.0 234.7,146.0 236.2,146.0 237.7,146.0 239.2,146.0 240.6,146.0 242.1,146.0 243.6,146.0 245.0,146.0 246.5,146.0 248.0,146.0 249.4,146.0 250.9,146.0 252.4,146.0 253.8,146.0 255.3,146.0 256.8,146.0 258.3,146.0 259.7,146.0 261.2,146.0 262.7,146.0 264.1,146.0 265.6,146.0 267.1,146.0 268.6,146.0 270.0,146.0 271.5,146.0 273.0,146.0 274.4,146.0 275.9,146.0 277.4,146.0 278.8,146.0 280.3,146.0 281.8,146.0 283.2,146.0 284.7,146.0 286.2,146.0 287.7,146.0 289.1,146.0 290.6,146.0 292.1,146.0 293.5,146.0 295.0,146.0 296.5,146.0 297.9,146.0 299.4,146.0 300.9,146.0 302.4,146.0 303.8,146.0 305.3,146.0 306.8,146.0 308.2,146.0 309.7,146.0 311.2,146.0 312.7,146.0 314.1,146.0 315.6,146.0 317.1,146.0 318.5,146.0 320.0,274.0 321.5,274.0 322.9,274.0 324.4,274.0 325.9,274.0 327.3,274.0 328.8,274.0 330.3,274.0 331.8,274.0 333.2,274.0 334.7,274.0 336.2,274.0 337.6,274.0 339.1,274.0 340.6,274.0 342.1,274.0 343.5,274.0 345.0,274.0 346.5,274.0 347.9,274.0 349.4,274.0 350.9,274.0 352.3,274.0 353.8,274.0 355.3,274.0 356.8,274.0 358.2,274.0 359.7,274.0 361.2,274.0 362.6,274.0 364.1,274.0 365.6,274.0 367.0,274.0 368.5,274.0 370.0,274.0 371.4,274.0 372.9,274.0 374.4,274.0 375.9,274.0 377.3,274.0 378.8,274.0 380.3,274.0 381.7,274.0 383.2,274.0 384.7,274.0 386.1,274.0 387.6,274.0 389.1,274.0 390.6,274.0 392.0,274.0 393.5,274.0 395.0,274.0 396.4,274.0 397.9,274.0 399.4,274.0 400.9,274.0 402.3,274.0 403.8,274.0 405.3,274.0 406.7,274.0 408.2,274.0 409.7,274.0 411.1,274.0 412.6,274.0 414.1,274.0 415.6,274.0 417.0,274.0 418.5,274.0 420.0,274.0 421.4,274.0 422.9,274.0 424.4,274.0 425.8,274.0 427.3,274.0 428.8,274.0 430.2,274.0 431.7,274.0 433.2,274.0 434.7,274.0 436.1,274.0 437.6,274.0 439.1,274.0 440.5,274.0 442.0,274.0 443.5,274.0 444.9,274.0 446.4,274.0 447.9,274.0 449.4,274.0 450.8,274.0 452.3,274.0 453.8,274.0 455.2,274.0 456.7,274.0 458.2,274.0 459.6,274.0 461.1,274.0 462.6,274.0 464.1,274.0 465.5,274.0 467.0,274.0 468.5,274.0 469.9,274.0 471.4,274.0 472.9,274.0 474.4,274.0 475.8,274.0 477.3,274.0 478.8,274.0 480.2,274.0 481.7,274.0 483.2,274.0 484.6,274.0 486.1,274.0 487.6,274.0 489.1,274.0 490.5,274.0 492.0,274.0 493.5,274.0 494.9,274.0 496.4,274.0 497.9,274.0 499.3,274.0 500.8,274.0 502.3,274.0 503.8,274.0 505.2,274.0 506.7,274.0 508.2,274.0 509.6,274.0 511.1,274.0 512.6,274.0 514.0,274.0 515.5,274.0 517.0,274.0 518.5,274.0 519.9,274.0 521.4,274.0 522.9,274.0 524.3,274.0 525.8,274.0 527.3,274.0 528.7,274.0 530.2,274.0 531.7,274.0 533.1,274.0 534.6,274.0 536.1,274.0 537.6,274.0 539.0,274.0 540.5,274.0 542.0,274.0 543.4,274.0 544.9,274.0 546.4,274.0 547.9,274.0 549.3,274.0 550.8,274.0 552.3,274.0 553.7,274.0 555.2,274.0 556.7,274.0 558.1,274.0 559.6,274.0 561.1,274.0 562.5,274.0 564.0,274.0 565.5,274.0 567.0,274.0 568.4,274.0 569.9,274.0 571.4,274.0 572.8,274.0 574.3,274.0 575.8,274.0 577.2,274.0 578.7,274.0 580.2,274.0 581.7,274.0 583.1,274.0 584.6,274.0 586.1,274.0 587.5,274.0 589.0,274.0 590.5,274.0 592.0,274.0 593.4,274.0 594.9,274.0 596.4,274.0 597.8,274.0 599.3,274.0 600.8,274.0 602.2,274.0 603.7,274.0 605.2,274.0 606.6,274.0 608.1,274.0 609.6,274.0 611.1,274.0 612.5,274.0 614.0,274.0" fill="none" stroke="#1f77b4" stroke-width="3"/>
<circle cx="320" cy="146" r="7" fill="white" stroke="black" stroke-width="2"/>
<circle cx="320" cy="274" r="6" fill="black"/>
<text x="320" y="22" text-anchor="middle" font-family="Arial" font-size="16">Jump behavior</text></svg>