<svg xmlns="http://www.w3.org/2000/svg" width="640" height="420" viewBox="0 0 640 420">
<rect width="640" height="420" fill="white" stroke="black"/>
<defs><marker id="arrow" markerWidth="10" markerHeight="10" refX="6" refY="3" orient="auto"><path d="M0,0 L0,6 L7,3 z" fill="black"/></marker></defs>
<line x1="30" y1="210" x2="610" y2="210" stroke="black" marker-end="url(#arrow)"/>
<line x1="320" y1="390" x2="320" y2="30" stroke="black" marker-end="url(#arrow)"/>
<line x1="68" y1="206" x2="68" y2="214" stroke="black"/><text x="68" y="228" font-size="10" text-anchor="middle">-6</text>
<line x1="316" y1="402" x2="324" y2="402" stroke="black"/><text x="312" y="406" font-size="10" text-anchor="end">-6</text>
<line x1="110" y1="206" x2="110" y2="214" stroke="black"/><text x="110" y="228" font-size="10" text-anchor="middle">-5</text>
<line x1="316" y1="370" x2="324" y2="370" stroke="black"/><text x="312" y="374" font-size="10" text-anchor="end">-5</text>
<line x1="152" y1="206" x2="152" y2="214" stroke="black"/><text x="152" y="228" font-size="10" text-anchor="middle">-4</text>
<line x1="316" y1="338" x2="324" y2="338" stroke="black"/><text x="312" y="342" font-size="10" text-anchor="end">-4</text>
<line x1="194" y1="206" x2="194" y2="214" stroke="black"/><text x="194" y="228" font-size="10" text-anchor="middle">-3</text>
<line x1="316" y1="306" x2="324" y2="306" stroke="black"/><text x="312" y="310" font-size="10" text-anchor="end">-3</text>
<line x1="236" y1="206" x2="236" y2="214" stroke="black"/><text x="236" y="228" font-size="10" text-anchor="middle">-2</text>
<line x1="316" y1="274" x2="324" y2="274" stroke="black"/><text x="312" y="278" font-size="10" text-anchor="end">-2</text>
<line x1="278" y1="206" x2="278" y2="214" stroke="black"/><text x="278" y="228" font-size="10" text-anchor="middle">-1</text>
<line x1="316" y1="242" x2="324" y2="242" stroke="black"/><text x="312" y="246" font-size="10" text-anchor="end">-1</text>
<line x1="320" y1="206" x2="320" y2="214" stroke="black"/><text x="320" y="228" font-size="10" text-anchor="middle">0</text>
<line x1="316" y1="210" x2="324" y2="210" stroke="black"/><text x="312" y="214" font-size="10" text-anchor="end">0</text>
<line x1="362" y1="206" x2="362" y2="214" stroke="black"/><text x="362" y="228" font-size="10" text-anchor="middle">1</text>
<line x1="316" y1="178" x2="324" y2="178" stroke="black"/><text x="312" y="182" font-size="10" text-anchor="end">1</text>
<line x1="404" y1="206" x2="404" y2="214" stroke="black"/><text x="404" y="228" font-size="10" text-anchor="middle">2</text>
<line x1="316" y1="146" x2="324" y2="146" stroke="black"/><text x="312" y="150" font-size="10" text-anchor="end">2</text>
<line x1="446" y1="206" x2="446" y2="214" stroke="black"/><text x="446" y="228" font-size="10" text-anchor="middle">3</text>
<line x1="316" y1="114" x2="324" y2="114" stroke="black"/><text x="312" y="118" font-size="10" text-anchor="end">3</text>
<line x1="488" y1="206" x2="488" y2="214" stroke="black"/><text x="488" y="228" font-size="10" text-anchor="middle">4</text>
<line x1="316" y1="82" x2="324" y2="82" stroke="black"/><text x="312" y="86" font-size="10" text-anchor="end">4</text>
<line x1="530" y1="206" x2="530" y2="214" stroke="black"/><text x="530" y="228" font-size="10" text-anchor="middle">5</text>
<line x1="316" y1="50" x2="324" y2="50" stroke="black"/><text x="312" y="54" font-size="10" text-anchor="end">5</text>
<line x1="572" y1="206" x2="572" y2="214" stroke="black"/><text x="572" y="228" font-size="10" text-anchor="middle">6</text>
<line x1="316" y1="18" x2="324" y2="18" stroke="black"/><text x="312" y="22" font-size="10" text-anchor="end">6</text>
<line x1="320" y1="25" x2="320" y2="395" stroke="gray" stroke-dasharray="6 5"/>
<polyline points="26.0,214.6 27.5,214.6 28.9,214.6 30.4,214.6 31.9,214.7 33.3,214.7 34.8,214.7 36.3,214.7 37.8,214.8 39.2,214.8 40.7,214.8 42.2,214.8 43.6,214.9 45.1,214.9 46.6,214.9 48.1,214.9 49.5,215.0 51.0,215.0 52.5,215.0 53.9,215.1 55.4,215.1 56.9,215.1 58.3,215.1 59.8,215.2 61.3,215.2 62.8,215.2 64.2,215.3 65.7,215.3 67.2,215.3 68.6,215.3 70.1,215.4 71.6,215.4 73.0,215.4 74.5,215.5 76.0,215.5 77.4,215.5 78.9,215.6 80.4,215.6 81.9,215.6 83.3,215.7 84.8,215.7 86.3,215.8 87.7,215.8 89.2,215.8 90.7,215.9 92.2,215.9 93.6,215.9 95.1,216.0 96.6,216.0 98.0,216.1 99.5,216.1 101.0,216.1 102.4,216.2 103.9,216.2 105.4,216.3 106.8,216.3 108.3,216.3 109.8,216.4 111.3,216.4 112.7,216.5 114.2,216.5 115.7,216.6 117.1,216.6 118.6,216.7 120.1,216.7 121.6,216.8 123.0,216.8 124.5,216.9 126.0,216.9 127.4,217.0 128.9,217.0 130.4,217.1 131.8,217.1 133.3,217.2 134.8,217.3 136.2,217.3 137.7,217.4 139.2,217.4 140.7,217.5 142.1,217.6 143.6,217.6 145.1,217.7 146.5,217.7 148.0,217.8 149.5,217.9 150.9,218.0 152.4,218.0 153.9,218.1 155.4,218.2 156.8,218.2 158.3,218.3 159.8,218.4 161.2,218.5 162.7,218.5 164.2,218.6 165.7,218.7 167.1,218.8 168.6,218.9 170.1,219.0 171.5,219.1 173.0,219.1 174.5,219.2 175.9,219.3 177.4,219.4 178.9,219.5 180.3,219.6 181.8,219.7 183.3,219.8 184.8,219.9 186.2,220.0 187.7,220.2 189.2,220.3 190.6,220.4 192.1,220.5 193.6,220.6 195.1,220.8 196.5,220.9 198.0,221.0 199.5,221.1 200.9,221.3 202.4,221.4 203.9,221.6 205.3,221.7 206.8,221.9 208.3,222.0 209.8,222.2 211.2,222.4 212.7,222.5 214.2,222.7 215.6,222.9 217.1,223.1 218.6,223.3 220.0,223.4 221.5,223.6 223.0,223.9 224.4,224.1 225.9,224.3 227.4,224.5 228.9,224.7 230.3,225.0 231.8,225.2 233.3,225.5 234.7,225.8 236.2,226.0 237.7,226.3 239.2,226.6 240.6,226.9 242.1,227.3 243.6,227.6 245.0,227.9 246.5,228.3 248.0,228.7 249.4,229.0 250.9,229.5 252.4,229.9 253.8,230.3 255.3,230.8 256.8,231.3 258.3,231.8 259.7,232.3 261.2,232.9 262.7,233.4 264.1,234.1 265.6,234.7 267.1,235.4 268.6,236.1 270.0,236.9 271.5,237.7 273.0,238.6 274.4,239.5 275.9,240.5 277.4,241.5 278.8,242.7 280.3,243.9 281.8,245.2 283.2,246.6 284.7,248.1 286.2,249.8 287.7,251.6 289.1,253.5 290.6,255.7 292.1,258.1 293.5,260.8 295.0,263.8 296.5,267.1 297.9,271.0 299.4,275.3 300.9,280.3 302.4,286.2 303.8,293.1 305.3,301.4 306.8,311.6 308.2,324.3 309.7,340.6 311.2,362.4 312.7,392.9" fill="none" stroke="#1f77b4" stroke-width="3"/>
<polyline points="327.3,27.1 328.8,57.6 330.3,79.4 331.8,95.7 333.2,108.4 334.7,118.6 336.2,126.9 337.6,133.8 339.1,139.7 340.6,144.7 342.1,149.0 343.5,152.9 345.0,156.2 346.5,159.2 347.9,161.9 349.4,164.3 350.9,166.5 352.3,168.4 353.8,170.2 355.3,171.9 356.8,173.4 358.2,174.8 359.7,176.1 361.2,177.3 362.6,178.5 364.1,179.5 365.6,180.5 367.0,181.4 368.5,182.3 370.0,183.1 371.4,183.9 372.9,184.6 374.4,185.3 375.9,185.9 377.3,186.6 378.8,187.1 380.3,187.7 381.7,188.2 383.2,188.7 384.7,189.2 386.1,189.7 387.6,190.1 389.1,190.5 390.6,191.0 392.0,191.3 393.5,191.7 395.0,192.1 396.4,192.4 397.9,192.7 399.4,193.1 400.9,193.4 402.3,193.7 403.8,194.0 405.3,194.2 406.7,194.5 408.2,194.8 409.7,195.0 411.1,195.3 412.6,195.5 414.1,195.7 415.6,195.9 417.0,196.1 418.5,196.4 420.0,196.6 421.4,196.7 422.9,196.9 424.4,197.1 425.8,197.3 427.3,197.5 428.8,197.6 430.2,197.8 431.7,198.0 433.2,198.1 434.7,198.3 436.1,198.4 437.6,198.6 439.1,198.7 440.5,198.9 442.0,199.0 443.5,199.1 444.9,199.2 446.4,199.4 447.9,199.5 449.4,199.6 450.8,199.7 452.3,199.8 453.8,200.0 455.2,200.1 456.7,200.2 458.2,200.3 459.6,200.4 461.1,200.5 462.6,200.6 464.1,200.7 465.5,200.8 467.0,200.9 468.5,200.9 469.9,201.0 471.4,201.1 472.9,201.2 474.4,201.3 475.8,201.4 477.3,201.5 478.8,201.5 480.2,201.6 481.7,201.7 483.2,201.8 484.6,201.8 486.1,201.9 487.6,202.0 489.1,202.0 490.5,202.1 492.0,202.2 493.5,202.3 494.9,202.3 496.4,202.4 497.9,202.4 499.3,202.5 500.8,202.6 502.3,202.6 503.8,202.7 505.2,202.7 506.7,202.8 508.2,202.9 509.6,202.9 511.1,203.0 512.6,203.0 514.0,203.1 515.5,203.1 517.0,203.2 518.5,203.2 519.9,203.3 521.4,203.3 522.9,203.4 524.3,203.4 525.8,203.5 527.3,203.5 528.7,203.6 530.2,203.6 531.7,203.7 533.1,203.7 534.6,203.7 536.1,203.8 537.6,203.8 539.0,203.9 540.5,203.9 542.0,203.9 543.4,204.0 544.9,204.0 546.4,204.1 547.9,204.1 549.3,204.1 550.8,204.2 552.3,204.2 553.7,204.2 555.2,204.3 556.7,204.3 558.1,204.4 559.6,204.4 561.1,204.4 562.5,204.5 564.0,204.5 565.5,204.5 567.0,204.6 568.4,204.6 569.9,204.6 571.4,204.7 572.8,204.7 574.3,204.7 575.8,204.7 577.2,204.8 578.7,204.8 580.2,204.8 581.7,204.9 583.1,204.9 584.6,204.9 586.1,204.9 587.5,205.0 589.0,205.0 590.5,205.0 592.0,205.1 593.4,205.1 594.9,205.1 596.4,205.1 597.8,205.2 599.3,205.2 600.8,205.2 602.2,205.2 603.7,205.3 605.2,205.3 606.6,205.3 608.1,205.3 609.6,205.4 611.1,205.4 612.5,205.4 614.0,205.4" fill="none" stroke="#1f77b4" stroke-width="3"/>
<text x="320" y="22" text-anchor="middle" font-family="Arial" font-size="16">Vertical asymptote</text></svg>