<svg xmlns="http://www.w3.org/2000/svg" width="640" height="420" viewBox="0 0 640 420">
<rect width="640" height="420" fill="white" stroke="black"/>
<defs><marker id="arrow" markerWidth="10" markerHeight="10" refX="6" refY="3" orient="auto"><path d="M0,0 L0,6 L7,3 z" fill="black"/></marker></defs>
<line x1="30" y1="210" x2="610" y2="210" stroke="black" marker-end="url(#arrow)"/>
<line x1="320" y1="390" x2="320" y2="30" stroke="black" marker-end="url(#arrow)"/>
<line x1="68" y1="206" x2="68" y2="214" stroke="black"/><text x="68" y="228" font-size="10" text-anchor="middle">-6</text>
<line x1="316" y1="402" x2="324" y2="402" stroke="black"/><text x="312" y="406" font-size="10" text-anchor="end">-6</text>
<line x1="110" y1="206" x2="110" y2="214" stroke="black"/><text x="110" y="228" font-size="10" text-anchor="middle">-5</text>
<line x1="316" y1="370" x2="324" y2="370" stroke="black"/><text x="312" y="374" font-size="10" text-anchor="end">-5</text>
<line x1="152" y1="206" x2="152" y2="214" stroke="black"/><text x="152" y="228" font-size="10" text-anchor="middle">-4</text>
<line x1="316" y1="338" x2="324" y2="338" stroke="black"/><text x="312" y="342" font-size="10" text-anchor="end">-4</text>
<line x1="194" y1="206" x2="194" y2="214" stroke="black"/><text x="194" y="228" font-size="10" text-anchor="middle">-3</text>
<line x1="316" y1="306" x2="324" y2="306" stroke="black"/><text x="312" y="310" font-size="10" text-anchor="end">-3</text>
<line x1="236" y1="206" x2="236" y2="214" stroke="black"/><text x="236" y="228" font-size="10" text-anchor="middle">-2</text>
<line x1="316" y1="274" x2="324" y2="274" stroke="black"/><text x="312" y="278" font-size="10" text-anchor="end">-2</text>
<line x1="278" y1="206" x2="278" y2="214" stroke="black"/><text x="278" y="228" font-size="10" text-anchor="middle">-1</text>
<line x1="316" y1="242" x2="324" y2="242" stroke="black"/><text x="312" y="246" font-size="10" text-anchor="end">-1</text>
<line x1="320" y1="206" x2="320" y2="214" stroke="black"/><text x="320" y="228" font-size="10" text-anchor="middle">0</text>
<line x1="316" y1="210" x2="324" y2="210" stroke="black"/><text x="312" y="214" font-size="10" text-anchor="end">0</text>
<line x1="362" y1="206" x2="362" y2="214" stroke="black"/><text x="362" y="228" font-size="10" text-anchor="middle">1</text>
<line x1="316" y1="178" x2="324" y2="178" stroke="black"/><text x="312" y="182" font-size="10" text-anchor="end">1</text>
<line x1="404" y1="206" x2="404" y2="214" stroke="black"/><text x="404" y="228" font-size="10" text-anchor="middle">2</text>
<line x1="316" y1="146" x2="324" y2="146" stroke="black"/><text x="312" y="150" font-size="10" text-anchor="end">2</text>
<line x1="446" y1="206" x2="446" y2="214" stroke="black"/><text x="446" y="228" font-size="10" text-anchor="middle">3</text>
<line x1="316" y1="114" x2="324" y2="114" stroke="black"/><text x="312" y="118" font-size="10" text-anchor="end">3</text>
<line x1="488" y1="206" x2="488" y2="214" stroke="black"/><text x="488" y="228" font-size="10" text-anchor="middle">4</text>
<line x1="316" y1="82" x2="324" y2="82" stroke="black"/><text x="312" y="86" font-size="10" text-anchor="end">4</text>
<line x1="530" y1="206" x2="530" y2="214" stroke="black"/><text x="530" y="228" font-size="10" text-anchor="middle">5</text>
<line x1="316" y1="50" x2="324" y2="50" stroke="black"/><text x="312" y="54" font-size="10" text-anchor="end">5</text>
<line x1="572" y1="206" x2="572" y2="214" stroke="black"/><text x="572" y="228" font-size="10" text-anchor="middle">6</text>
<line x1="316" y1="18" x2="324" y2="18" stroke="black"/><text x="312" y="22" font-size="10" text-anchor="end">6</text>
<polyline points="26.0,320.6 27.5,319.3 28.9,318.0 30.4,316.6 31.9,315.3 33.3,313.9 34.8,312.4 36.3,311.0 37.8,309.6 39.2,308.1 40.7,306.6 42.2,305.1 43.6,303.6 45.1,302.1 46.6,300.5 48.1,299.0 49.5,297.4 51.0,295.9 52.5,294.3 53.9,292.7 55.4,291.2 56.9,289.6 58.3,288.0 59.8,286.5 61.3,284.9 62.8,283.4 64.2,281.8 65.7,280.3 67.2,278.7 68.6,277.2 70.1,275.7 71.6,274.2 73.0,272.7 74.5,271.2 76.0,269.8 77.4,268.3 78.9,266.9 80.4,265.5 81.9,264.2 83.3,262.8 84.8,261.5 86.3,260.2 87.7,258.9 89.2,257.6 90.7,256.4 92.2,255.2 93.6,254.1 95.1,252.9 96.6,251.8 98.0,250.8 99.5,249.7 101.0,248.7 102.4,247.7 103.9,246.8 105.4,245.9 106.8,245.0 108.3,244.2 109.8,243.4 111.3,242.7 112.7,242.0 114.2,241.3 115.7,240.6 117.1,240.0 118.6,239.5 120.1,239.0 121.6,238.5 123.0,238.0 124.5,237.6 126.0,237.3 127.4,236.9 128.9,236.7 130.4,236.4 131.8,236.2 133.3,236.0 134.8,235.9 136.2,235.8 137.7,235.7 139.2,235.7 140.7,235.7 142.1,235.8 143.6,235.9 145.1,236.0 146.5,236.1 148.0,236.3 149.5,236.5 150.9,236.8 152.4,237.1 153.9,237.4 155.4,237.7 156.8,238.1 158.3,238.5 159.8,238.9 161.2,239.3 162.7,239.8 164.2,240.3 165.7,240.8 167.1,241.3 168.6,241.8 170.1,242.4 171.5,243.0 173.0,243.6 174.5,244.2 175.9,244.8 177.4,245.4 178.9,246.1 180.3,246.7 181.8,247.4 183.3,248.0 184.8,248.7 186.2,249.4 187.7,250.1 189.2,250.7 190.6,251.4 192.1,252.1 193.6,252.7 195.1,253.4 196.5,254.0 198.0,254.7 199.5,255.3 200.9,255.9 202.4,256.6 203.9,257.2 205.3,257.7 206.8,258.3 208.3,258.9 209.8,259.4 211.2,259.9 212.7,260.4 214.2,260.9 215.6,261.3 217.1,261.8 218.6,262.2 220.0,262.5 221.5,262.9 223.0,263.2 224.4,263.5 225.9,263.8 227.4,264.0 228.9,264.2 230.3,264.4 231.8,264.5 233.3,264.6 234.7,264.7 236.2,264.7 237.7,264.7 239.2,264.7 240.6,264.6 242.1,264.5 243.6,264.3 245.0,264.1 246.5,263.9 248.0,263.6 249.4,263.3 250.9,263.0 252.4,262.6 253.8,262.2 255.3,261.7 256.8,261.2 258.3,260.7 259.7,260.1 261.2,259.5 262.7,258.8 264.1,258.1 265.6,257.4 267.1,256.6 268.6,255.8 270.0,254.9 271.5,254.1 273.0,253.1 274.4,252.2 275.9,251.2 277.4,250.2 278.8,249.1 280.3,248.0 281.8,246.9 283.2,245.8 284.7,244.6 286.2,243.4 287.7,242.1 289.1,240.9 290.6,239.6 292.1,238.3 293.5,236.9 295.0,235.6 296.5,234.2 297.9,232.8 299.4,231.3 300.9,229.9 302.4,228.4 303.8,226.9 305.3,225.5 306.8,223.9 308.2,222.4 309.7,220.9 311.2,219.4 312.7,217.8 314.1,216.3 315.6,214.7 317.1,213.1 318.5,211.6 320.0,210.0 321.5,208.4 322.9,206.9 324.4,205.3 325.9,203.7 327.3,202.2 328.8,200.6 330.3,199.1 331.8,197.6 333.2,196.1 334.7,194.5 336.2,193.1 337.6,191.6 339.1,190.1 340.6,188.7 342.1,187.2 343.5,185.8 345.0,184.4 346.5,183.1 347.9,181.7 349.4,180.4 350.9,179.1 352.3,177.9 353.8,176.6 355.3,175.4 356.8,174.2 358.2,173.1 359.7,172.0 361.2,170.9 362.6,169.8 364.1,168.8 365.6,167.8 367.0,166.9 368.5,165.9 370.0,165.1 371.4,164.2 372.9,163.4 374.4,162.6 375.9,161.9 377.3,161.2 378.8,160.5 380.3,159.9 381.7,159.3 383.2,158.8 384.7,158.3 386.1,157.8 387.6,157.4 389.1,157.0 390.6,156.7 392.0,156.4 393.5,156.1 395.0,155.9 396.4,155.7 397.9,155.5 399.4,155.4 400.9,155.3 402.3,155.3 403.8,155.3 405.3,155.3 406.7,155.4 408.2,155.5 409.7,155.6 411.1,155.8 412.6,156.0 414.1,156.2 415.6,156.5 417.0,156.8 418.5,157.1 420.0,157.5 421.4,157.8 422.9,158.2 424.4,158.7 425.8,159.1 427.3,159.6 428.8,160.1 430.2,160.6 431.7,161.1 433.2,161.7 434.7,162.3 436.1,162.8 437.6,163.4 439.1,164.1 440.5,164.7 442.0,165.3 443.5,166.0 444.9,166.6 446.4,167.3 447.9,167.9 449.4,168.6 450.8,169.3 452.3,169.9 453.8,170.6 455.2,171.3 456.7,172.0 458.2,172.6 459.6,173.3 461.1,173.9 462.6,174.6 464.1,175.2 465.5,175.8 467.0,176.4 468.5,177.0 469.9,177.6 471.4,178.2 472.9,178.7 474.4,179.2 475.8,179.7 477.3,180.2 478.8,180.7 480.2,181.1 481.7,181.5 483.2,181.9 484.6,182.3 486.1,182.6 487.6,182.9 489.1,183.2 490.5,183.5 492.0,183.7 493.5,183.9 494.9,184.0 496.4,184.1 497.9,184.2 499.3,184.3 500.8,184.3 502.3,184.3 503.8,184.2 505.2,184.1 506.7,184.0 508.2,183.8 509.6,183.6 511.1,183.3 512.6,183.1 514.0,182.7 515.5,182.4 517.0,182.0 518.5,181.5 519.9,181.0 521.4,180.5 522.9,180.0 524.3,179.4 525.8,178.7 527.3,178.0 528.7,177.3 530.2,176.6 531.7,175.8 533.1,175.0 534.6,174.1 536.1,173.2 537.6,172.3 539.0,171.3 540.5,170.3 542.0,169.2 543.4,168.2 544.9,167.1 546.4,165.9 547.9,164.8 549.3,163.6 550.8,162.4 552.3,161.1 553.7,159.8 555.2,158.5 556.7,157.2 558.1,155.8 559.6,154.5 561.1,153.1 562.5,151.7 564.0,150.2 565.5,148.8 567.0,147.3 568.4,145.8 569.9,144.3 571.4,142.8 572.8,141.3 574.3,139.7 575.8,138.2 577.2,136.6 578.7,135.1 580.2,133.5 581.7,132.0 583.1,130.4 584.6,128.8 586.1,127.3 587.5,125.7 589.0,124.1 590.5,122.6 592.0,121.0 593.4,119.5 594.9,117.9 596.4,116.4 597.8,114.9 599.3,113.4 600.8,111.9 602.2,110.4 603.7,109.0 605.2,107.6 606.6,106.1 608.1,104.7 609.6,103.4 611.1,102.0 612.5,100.7 614.0,99.4" fill="none" stroke="#1f77b4" stroke-width="3"/>
<text x="320" y="22" text-anchor="middle" font-family="Arial" font-size="16">U1S5-007</text></svg>