<svg xmlns="http://www.w3.org/2000/svg" width="640" height="420" viewBox="0 0 640 420">
<rect width="640" height="420" fill="white" stroke="black"/>
<defs><marker id="arrow" markerWidth="10" markerHeight="10" refX="6" refY="3" orient="auto"><path d="M0,0 L0,6 L7,3 z" fill="black"/></marker></defs>
<line x1="30" y1="210" x2="610" y2="210" stroke="black" marker-end="url(#arrow)"/>
<line x1="320" y1="390" x2="320" y2="30" stroke="black" marker-end="url(#arrow)"/>
<line x1="68" y1="206" x2="68" y2="214" stroke="black"/><text x="68" y="228" font-size="10" text-anchor="middle">-6</text>
<line x1="316" y1="402" x2="324" y2="402" stroke="black"/><text x="312" y="406" font-size="10" text-anchor="end">-6</text>
<line x1="110" y1="206" x2="110" y2="214" stroke="black"/><text x="110" y="228" font-size="10" text-anchor="middle">-5</text>
<line x1="316" y1="370" x2="324" y2="370" stroke="black"/><text x="312" y="374" font-size="10" text-anchor="end">-5</text>
<line x1="152" y1="206" x2="152" y2="214" stroke="black"/><text x="152" y="228" font-size="10" text-anchor="middle">-4</text>
<line x1="316" y1="338" x2="324" y2="338" stroke="black"/><text x="312" y="342" font-size="10" text-anchor="end">-4</text>
<line x1="194" y1="206" x2="194" y2="214" stroke="black"/><text x="194" y="228" font-size="10" text-anchor="middle">-3</text>
<line x1="316" y1="306" x2="324" y2="306" stroke="black"/><text x="312" y="310" font-size="10" text-anchor="end">-3</text>
<line x1="236" y1="206" x2="236" y2="214" stroke="black"/><text x="236" y="228" font-size="10" text-anchor="middle">-2</text>
<line x1="316" y1="274" x2="324" y2="274" stroke="black"/><text x="312" y="278" font-size="10" text-anchor="end">-2</text>
<line x1="278" y1="206" x2="278" y2="214" stroke="black"/><text x="278" y="228" font-size="10" text-anchor="middle">-1</text>
<line x1="316" y1="242" x2="324" y2="242" stroke="black"/><text x="312" y="246" font-size="10" text-anchor="end">-1</text>
<line x1="320" y1="206" x2="320" y2="214" stroke="black"/><text x="320" y="228" font-size="10" text-anchor="middle">0</text>
<line x1="316" y1="210" x2="324" y2="210" stroke="black"/><text x="312" y="214" font-size="10" text-anchor="end">0</text>
<line x1="362" y1="206" x2="362" y2="214" stroke="black"/><text x="362" y="228" font-size="10" text-anchor="middle">1</text>
<line x1="316" y1="178" x2="324" y2="178" stroke="black"/><text x="312" y="182" font-size="10" text-anchor="end">1</text>
<line x1="404" y1="206" x2="404" y2="214" stroke="black"/><text x="404" y="228" font-size="10" text-anchor="middle">2</text>
<line x1="316" y1="146" x2="324" y2="146" stroke="black"/><text x="312" y="150" font-size="10" text-anchor="end">2</text>
<line x1="446" y1="206" x2="446" y2="214" stroke="black"/><text x="446" y="228" font-size="10" text-anchor="middle">3</text>
<line x1="316" y1="114" x2="324" y2="114" stroke="black"/><text x="312" y="118" font-size="10" text-anchor="end">3</text>
<line x1="488" y1="206" x2="488" y2="214" stroke="black"/><text x="488" y="228" font-size="10" text-anchor="middle">4</text>
<line x1="316" y1="82" x2="324" y2="82" stroke="black"/><text x="312" y="86" font-size="10" text-anchor="end">4</text>
<line x1="530" y1="206" x2="530" y2="214" stroke="black"/><text x="530" y="228" font-size="10" text-anchor="middle">5</text>
<line x1="316" y1="50" x2="324" y2="50" stroke="black"/><text x="312" y="54" font-size="10" text-anchor="end">5</text>
<line x1="572" y1="206" x2="572" y2="214" stroke="black"/><text x="572" y="228" font-size="10" text-anchor="middle">6</text>
<line x1="316" y1="18" x2="324" y2="18" stroke="black"/><text x="312" y="22" font-size="10" text-anchor="end">6</text>
<polyline points="320.0,210.0 321.5,204.0 322.9,201.5 324.4,199.6 325.9,198.0 327.3,196.6 328.8,195.3 330.3,194.2 331.8,193.1 333.2,192.0 334.7,191.1 336.2,190.1 337.6,189.3 339.1,188.4 340.6,187.6 342.1,186.8 343.5,186.1 345.0,185.3 346.5,184.6 347.9,183.9 349.4,183.2 350.9,182.6 352.3,181.9 353.8,181.3 355.3,180.7 356.8,180.1 358.2,179.5 359.7,178.9 361.2,178.3 362.6,177.8 364.1,177.2 365.6,176.7 367.0,176.1 368.5,175.6 370.0,175.1 371.4,174.6 372.9,174.1 374.4,173.6 375.9,173.1 377.3,172.6 378.8,172.1 380.3,171.7 381.7,171.2 383.2,170.7 384.7,170.3 386.1,169.8 387.6,169.4 389.1,169.0 390.6,168.5 392.0,168.1 393.5,167.7 395.0,167.2 396.4,166.8 397.9,166.4 399.4,166.0 400.9,165.6 402.3,165.2 403.8,164.8 405.3,164.4 406.7,164.0 408.2,163.6 409.7,163.2 411.1,162.9 412.6,162.5 414.1,162.1 415.6,161.7 417.0,161.4 418.5,161.0 420.0,160.6 421.4,160.3 422.9,159.9 424.4,159.6 425.8,159.2 427.3,158.9 428.8,158.5 430.2,158.2 431.7,157.8 433.2,157.5 434.7,157.1 436.1,156.8 437.6,156.5 439.1,156.1 440.5,155.8 442.0,155.5 443.5,155.1 444.9,154.8 446.4,154.5 447.9,154.2 449.4,153.8 450.8,153.5 452.3,153.2 453.8,152.9 455.2,152.6 456.7,152.3 458.2,152.0 459.6,151.6 461.1,151.3 462.6,151.0 464.1,150.7 465.5,150.4 467.0,150.1 468.5,149.8 469.9,149.5 471.4,149.2 472.9,148.9 474.4,148.7 475.8,148.4 477.3,148.1 478.8,147.8 480.2,147.5 481.7,147.2 483.2,146.9 484.6,146.6 486.1,146.4 487.6,146.1 489.1,145.8 490.5,145.5 492.0,145.2 493.5,145.0 494.9,144.7 496.4,144.4 497.9,144.1 499.3,143.9 500.8,143.6 502.3,143.3 503.8,143.1 505.2,142.8 506.7,142.5 508.2,142.3 509.6,142.0 511.1,141.7 512.6,141.5 514.0,141.2 515.5,141.0 517.0,140.7 518.5,140.4 519.9,140.2 521.4,139.9 522.9,139.7 524.3,139.4 525.8,139.2 527.3,138.9 528.7,138.7 530.2,138.4 531.7,138.2 533.1,137.9 534.6,137.7 536.1,137.4 537.6,137.2 539.0,136.9 540.5,136.7 542.0,136.4 543.4,136.2 544.9,135.9 546.4,135.7 547.9,135.5 549.3,135.2 550.8,135.0 552.3,134.7 553.7,134.5 555.2,134.3 556.7,134.0 558.1,133.8 559.6,133.6 561.1,133.3 562.5,133.1 564.0,132.9 565.5,132.6 567.0,132.4 568.4,132.2 569.9,131.9 571.4,131.7 572.8,131.5 574.3,131.3 575.8,131.0 577.2,130.8 578.7,130.6 580.2,130.4 581.7,130.1 583.1,129.9 584.6,129.7 586.1,129.5 587.5,129.2 589.0,129.0 590.5,128.8 592.0,128.6 593.4,128.4 594.9,128.1 596.4,127.9 597.8,127.7 599.3,127.5 600.8,127.3 602.2,127.0 603.7,126.8 605.2,126.6 606.6,126.4 608.1,126.2 609.6,126.0 611.1,125.8 612.5,125.5 614.0,125.3" fill="none" stroke="#1f77b4" stroke-width="3"/>
<polyline points="175.9,21.8 177.4,25.6 178.9,29.4 180.3,33.1 181.8,36.8 183.3,40.5 184.8,44.1 186.2,47.7 187.7,51.2 189.2,54.7 190.6,58.2 192.1,61.6 193.6,65.0 195.1,68.4 196.5,71.7 198.0,75.0 199.5,78.2 200.9,81.4 202.4,84.6 203.9,87.7 205.3,90.8 206.8,93.8 208.3,96.8 209.8,99.8 211.2,102.7 212.7,105.6 214.2,108.4 215.6,111.2 217.1,114.0 218.6,116.7 220.0,119.4 221.5,122.0 223.0,124.6 224.4,127.2 225.9,129.7 227.4,132.2 228.9,134.7 230.3,137.1 231.8,139.4 233.3,141.8 234.7,144.1 236.2,146.3 237.7,148.5 239.2,150.7 240.6,152.8 242.1,154.9 243.6,157.0 245.0,159.0 246.5,161.0 248.0,162.9 249.4,164.8 250.9,166.7 252.4,168.5 253.8,170.3 255.3,172.1 256.8,173.8 258.3,175.4 259.7,177.1 261.2,178.6 262.7,180.2 264.1,181.7 265.6,183.2 267.1,184.6 268.6,186.0 270.0,187.3 271.5,188.7 273.0,189.9 274.4,191.2 275.9,192.4 277.4,193.5 278.8,194.6 280.3,195.7 281.8,196.8 283.2,197.8 284.7,198.7 286.2,199.6 287.7,200.5 289.1,201.4 290.6,202.2 292.1,202.9 293.5,203.6 295.0,204.3 296.5,205.0 297.9,205.6 299.4,206.2 300.9,206.7 302.4,207.2 303.8,207.6 305.3,208.0 306.8,208.4 308.2,208.7 309.7,209.0 311.2,209.3 312.7,209.5 314.1,209.7 315.6,209.8 317.1,209.9 318.5,210.0 320.0,210.0 321.5,210.0 322.9,209.9 324.4,209.8 325.9,209.7 327.3,209.5 328.8,209.3 330.3,209.0 331.8,208.7 333.2,208.4 334.7,208.0 336.2,207.6 337.6,207.2 339.1,206.7 340.6,206.2 342.1,205.6 343.5,205.0 345.0,204.3 346.5,203.6 347.9,202.9 349.4,202.2 350.9,201.4 352.3,200.5 353.8,199.6 355.3,198.7 356.8,197.8 358.2,196.8 359.7,195.7 361.2,194.6 362.6,193.5 364.1,192.4 365.6,191.2 367.0,189.9 368.5,188.7 370.0,187.3 371.4,186.0 372.9,184.6 374.4,183.2 375.9,181.7 377.3,180.2 378.8,178.6 380.3,177.1 381.7,175.4 383.2,173.8 384.7,172.1 386.1,170.3 387.6,168.5 389.1,166.7 390.6,164.8 392.0,162.9 393.5,161.0 395.0,159.0 396.4,157.0 397.9,154.9 399.4,152.8 400.9,150.7 402.3,148.5 403.8,146.3 405.3,144.1 406.7,141.8 408.2,139.4 409.7,137.1 411.1,134.7 412.6,132.2 414.1,129.7 415.6,127.2 417.0,124.6 418.5,122.0 420.0,119.4 421.4,116.7 422.9,114.0 424.4,111.2 425.8,108.4 427.3,105.6 428.8,102.7 430.2,99.8 431.7,96.8 433.2,93.8 434.7,90.8 436.1,87.7 437.6,84.6 439.1,81.4 440.5,78.2 442.0,75.0 443.5,71.7 444.9,68.4 446.4,65.0 447.9,61.6 449.4,58.2 450.8,54.7 452.3,51.2 453.8,47.7 455.2,44.1 456.7,40.5 458.2,36.8 459.6,33.1 461.1,29.4 462.6,25.6 464.1,21.8" fill="none" stroke="#d62728" stroke-width="3"/>
<polyline points="68.6,401.5 70.1,400.4 71.6,399.3 73.0,398.2 74.5,397.0 76.0,395.9 77.4,394.8 78.9,393.7 80.4,392.6 81.9,391.4 83.3,390.3 84.8,389.2 86.3,388.1 87.7,387.0 89.2,385.8 90.7,384.7 92.2,383.6 93.6,382.5 95.1,381.4 96.6,380.2 98.0,379.1 99.5,378.0 101.0,376.9 102.4,375.8 103.9,374.6 105.4,373.5 106.8,372.4 108.3,371.3 109.8,370.2 111.3,369.0 112.7,367.9 114.2,366.8 115.7,365.7 117.1,364.6 118.6,363.4 120.1,362.3 121.6,361.2 123.0,360.1 124.5,359.0 126.0,357.8 127.4,356.7 128.9,355.6 130.4,354.5 131.8,353.4 133.3,352.2 134.8,351.1 136.2,350.0 137.7,348.9 139.2,347.8 140.7,346.6 142.1,345.5 143.6,344.4 145.1,343.3 146.5,342.2 148.0,341.0 149.5,339.9 150.9,338.8 152.4,337.7 153.9,336.6 155.4,335.4 156.8,334.3 158.3,333.2 159.8,332.1 161.2,331.0 162.7,329.8 164.2,328.7 165.7,327.6 167.1,326.5 168.6,325.4 170.1,324.2 171.5,323.1 173.0,322.0 174.5,320.9 175.9,319.8 177.4,318.6 178.9,317.5 180.3,316.4 181.8,315.3 183.3,314.2 184.8,313.0 186.2,311.9 187.7,310.8 189.2,309.7 190.6,308.6 192.1,307.4 193.6,306.3 195.1,305.2 196.5,304.1 198.0,303.0 199.5,301.8 200.9,300.7 202.4,299.6 203.9,298.5 205.3,297.4 206.8,296.2 208.3,295.1 209.8,294.0 211.2,292.9 212.7,291.8 214.2,290.6 215.6,289.5 217.1,288.4 218.6,287.3 220.0,286.2 221.5,285.0 223.0,283.9 224.4,282.8 225.9,281.7 227.4,280.6 228.9,279.4 230.3,278.3 231.8,277.2 233.3,276.1 234.7,275.0 236.2,273.8 237.7,272.7 239.2,271.6 240.6,270.5 242.1,269.4 243.6,268.2 245.0,267.1 246.5,266.0 248.0,264.9 249.4,263.8 250.9,262.6 252.4,261.5 253.8,260.4 255.3,259.3 256.8,258.2 258.3,257.0 259.7,255.9 261.2,254.8 262.7,253.7 264.1,252.6 265.6,251.4 267.1,250.3 268.6,249.2 270.0,248.1 271.5,247.0 273.0,245.8 274.4,244.7 275.9,243.6 277.4,242.5 278.8,241.4 280.3,240.2 281.8,239.1 283.2,238.0 284.7,236.9 286.2,235.8 287.7,234.6 289.1,233.5 290.6,232.4 292.1,231.3 293.5,230.2 295.0,229.0 296.5,227.9 297.9,226.8 299.4,225.7 300.9,224.6 302.4,223.4 303.8,222.3 305.3,221.2 306.8,220.1 308.2,219.0 309.7,217.8 311.2,216.7 312.7,215.6 314.1,214.5 315.6,213.4 317.1,212.2 318.5,211.1 320.0,210.0 321.5,208.9 322.9,207.8 324.4,206.6 325.9,205.5 327.3,204.4 328.8,203.3 330.3,202.2 331.8,201.0 333.2,199.9 334.7,198.8 336.2,197.7 337.6,196.6 339.1,195.4 340.6,194.3 342.1,193.2 343.5,192.1 345.0,191.0 346.5,189.8 347.9,188.7 349.4,187.6 350.9,186.5 352.3,185.4 353.8,184.2 355.3,183.1 356.8,182.0 358.2,180.9 359.7,179.8 361.2,178.6 362.6,177.5 364.1,176.4 365.6,175.3 367.0,174.2 368.5,173.0 370.0,171.9 371.4,170.8 372.9,169.7 374.4,168.6 375.9,167.4 377.3,166.3 378.8,165.2 380.3,164.1 381.7,163.0 383.2,161.8 384.7,160.7 386.1,159.6 387.6,158.5 389.1,157.4 390.6,156.2 392.0,155.1 393.5,154.0 395.0,152.9 396.4,151.8 397.9,150.6 399.4,149.5 400.9,148.4 402.3,147.3 403.8,146.2 405.3,145.0 406.7,143.9 408.2,142.8 409.7,141.7 411.1,140.6 412.6,139.4 414.1,138.3 415.6,137.2 417.0,136.1 418.5,135.0 420.0,133.8 421.4,132.7 422.9,131.6 424.4,130.5 425.8,129.4 427.3,128.2 428.8,127.1 430.2,126.0 431.7,124.9 433.2,123.8 434.7,122.6 436.1,121.5 437.6,120.4 439.1,119.3 440.5,118.2 442.0,117.0 443.5,115.9 444.9,114.8 446.4,113.7 447.9,112.6 449.4,111.4 450.8,110.3 452.3,109.2 453.8,108.1 455.2,107.0 456.7,105.8 458.2,104.7 459.6,103.6 461.1,102.5 462.6,101.4 464.1,100.2 465.5,99.1 467.0,98.0 468.5,96.9 469.9,95.8 471.4,94.6 472.9,93.5 474.4,92.4 475.8,91.3 477.3,90.2 478.8,89.0 480.2,87.9 481.7,86.8 483.2,85.7 484.6,84.6 486.1,83.4 487.6,82.3 489.1,81.2 490.5,80.1 492.0,79.0 493.5,77.8 494.9,76.7 496.4,75.6 497.9,74.5 499.3,73.4 500.8,72.2 502.3,71.1 503.8,70.0 505.2,68.9 506.7,67.8 508.2,66.6 509.6,65.5 511.1,64.4 512.6,63.3 514.0,62.2 515.5,61.0 517.0,59.9 518.5,58.8 519.9,57.7 521.4,56.6 522.9,55.4 524.3,54.3 525.8,53.2 527.3,52.1 528.7,51.0 530.2,49.8 531.7,48.7 533.1,47.6 534.6,46.5 536.1,45.4 537.6,44.2 539.0,43.1 540.5,42.0 542.0,40.9 543.4,39.8 544.9,38.6 546.4,37.5 547.9,36.4 549.3,35.3 550.8,34.2 552.3,33.0 553.7,31.9 555.2,30.8 556.7,29.7 558.1,28.6 559.6,27.4 561.1,26.3 562.5,25.2 564.0,24.1 565.5,23.0 567.0,21.8 568.4,20.7 569.9,19.6 571.4,18.5" fill="none" stroke="#2ca02c" stroke-width="3"/>
<text x="320" y="22" text-anchor="middle" font-family="Arial" font-size="16">Function and inverse</text></svg>