<svg xmlns="http://www.w3.org/2000/svg" width="640" height="420" viewBox="0 0 640 420">
<rect width="640" height="420" fill="white" stroke="black"/>
<defs><marker id="arrow" markerWidth="10" markerHeight="10" refX="6" refY="3" orient="auto"><path d="M0,0 L0,6 L7,3 z" fill="black"/></marker></defs>
<line x1="30" y1="210" x2="610" y2="210" stroke="black" marker-end="url(#arrow)"/>
<line x1="320" y1="390" x2="320" y2="30" stroke="black" marker-end="url(#arrow)"/>
<line x1="68" y1="206" x2="68" y2="214" stroke="black"/><text x="68" y="228" font-size="10" text-anchor="middle">-6</text>
<line x1="316" y1="402" x2="324" y2="402" stroke="black"/><text x="312" y="406" font-size="10" text-anchor="end">-6</text>
<line x1="110" y1="206" x2="110" y2="214" stroke="black"/><text x="110" y="228" font-size="10" text-anchor="middle">-5</text>
<line x1="316" y1="370" x2="324" y2="370" stroke="black"/><text x="312" y="374" font-size="10" text-anchor="end">-5</text>
<line x1="152" y1="206" x2="152" y2="214" stroke="black"/><text x="152" y="228" font-size="10" text-anchor="middle">-4</text>
<line x1="316" y1="338" x2="324" y2="338" stroke="black"/><text x="312" y="342" font-size="10" text-anchor="end">-4</text>
<line x1="194" y1="206" x2="194" y2="214" stroke="black"/><text x="194" y="228" font-size="10" text-anchor="middle">-3</text>
<line x1="316" y1="306" x2="324" y2="306" stroke="black"/><text x="312" y="310" font-size="10" text-anchor="end">-3</text>
<line x1="236" y1="206" x2="236" y2="214" stroke="black"/><text x="236" y="228" font-size="10" text-anchor="middle">-2</text>
<line x1="316" y1="274" x2="324" y2="274" stroke="black"/><text x="312" y="278" font-size="10" text-anchor="end">-2</text>
<line x1="278" y1="206" x2="278" y2="214" stroke="black"/><text x="278" y="228" font-size="10" text-anchor="middle">-1</text>
<line x1="316" y1="242" x2="324" y2="242" stroke="black"/><text x="312" y="246" font-size="10" text-anchor="end">-1</text>
<line x1="320" y1="206" x2="320" y2="214" stroke="black"/><text x="320" y="228" font-size="10" text-anchor="middle">0</text>
<line x1="316" y1="210" x2="324" y2="210" stroke="black"/><text x="312" y="214" font-size="10" text-anchor="end">0</text>
<line x1="362" y1="206" x2="362" y2="214" stroke="black"/><text x="362" y="228" font-size="10" text-anchor="middle">1</text>
<line x1="316" y1="178" x2="324" y2="178" stroke="black"/><text x="312" y="182" font-size="10" text-anchor="end">1</text>
<line x1="404" y1="206" x2="404" y2="214" stroke="black"/><text x="404" y="228" font-size="10" text-anchor="middle">2</text>
<line x1="316" y1="146" x2="324" y2="146" stroke="black"/><text x="312" y="150" font-size="10" text-anchor="end">2</text>
<line x1="446" y1="206" x2="446" y2="214" stroke="black"/><text x="446" y="228" font-size="10" text-anchor="middle">3</text>
<line x1="316" y1="114" x2="324" y2="114" stroke="black"/><text x="312" y="118" font-size="10" text-anchor="end">3</text>
<line x1="488" y1="206" x2="488" y2="214" stroke="black"/><text x="488" y="228" font-size="10" text-anchor="middle">4</text>
<line x1="316" y1="82" x2="324" y2="82" stroke="black"/><text x="312" y="86" font-size="10" text-anchor="end">4</text>
<line x1="530" y1="206" x2="530" y2="214" stroke="black"/><text x="530" y="228" font-size="10" text-anchor="middle">5</text>
<line x1="316" y1="50" x2="324" y2="50" stroke="black"/><text x="312" y="54" font-size="10" text-anchor="end">5</text>
<line x1="572" y1="206" x2="572" y2="214" stroke="black"/><text x="572" y="228" font-size="10" text-anchor="middle">6</text>
<line x1="316" y1="18" x2="324" y2="18" stroke="black"/><text x="312" y="22" font-size="10" text-anchor="end">6</text>
<polyline points="173.0,402.0 174.5,399.8 175.9,397.5 177.4,395.3 178.9,393.0 180.3,390.8 181.8,388.6 183.3,386.3 184.8,384.1 186.2,381.8 187.7,379.6 189.2,377.4 190.6,375.1 192.1,372.9 193.6,370.6 195.1,368.4 196.5,366.2 198.0,363.9 199.5,361.7 200.9,359.4 202.4,357.2 203.9,355.0 205.3,352.7 206.8,350.5 208.3,348.2 209.8,346.0 211.2,343.8 212.7,341.5 214.2,339.3 215.6,337.0 217.1,334.8 218.6,332.6 220.0,330.3 221.5,328.1 223.0,325.8 224.4,323.6 225.9,321.4 227.4,319.1 228.9,316.9 230.3,314.6 231.8,312.4 233.3,310.2 234.7,307.9 236.2,305.7 237.7,303.4 239.2,301.2 240.6,299.0 242.1,296.7 243.6,294.5 245.0,292.2 246.5,290.0 248.0,287.8 249.4,285.5 250.9,283.3 252.4,281.0 253.8,278.8 255.3,276.6 256.8,274.3 258.3,272.1 259.7,269.8 261.2,267.6 262.7,265.4 264.1,263.1 265.6,260.9 267.1,258.6 268.6,256.4 270.0,254.2 271.5,251.9 273.0,249.7 274.4,247.4 275.9,245.2 277.4,243.0 278.8,240.7 280.3,238.5 281.8,236.2 283.2,234.0 284.7,231.8 286.2,229.5 287.7,227.3 289.1,225.0 290.6,222.8 292.1,220.6 293.5,218.3 295.0,216.1 296.5,213.8 297.9,211.6 299.4,209.4 300.9,207.1 302.4,204.9 303.8,202.6 305.3,200.4 306.8,198.2 308.2,195.9 309.7,193.7 311.2,191.4 312.7,189.2 314.1,187.0 315.6,184.7 317.1,182.5 318.5,180.2 320.0,178.0 321.5,175.8 322.9,173.5 324.4,171.3 325.9,169.0 327.3,166.8 328.8,164.6 330.3,162.3 331.8,160.1 333.2,157.8 334.7,155.6 336.2,153.4 337.6,151.1 339.1,148.9 340.6,146.6 342.1,144.4 343.5,142.2 345.0,139.9 346.5,137.7 347.9,135.4 349.4,133.2 350.9,131.0 352.3,128.7 353.8,126.5 355.3,124.2 356.8,122.0 358.2,119.8 359.7,117.5 361.2,115.3 362.6,113.0 364.1,110.8 365.6,108.6 367.0,106.3 368.5,104.1 370.0,101.8 371.4,99.6 372.9,97.4 374.4,95.1 375.9,92.9 377.3,90.6 378.8,88.4 380.3,86.2 381.7,83.9 383.2,81.7 384.7,79.4 386.1,77.2 387.6,75.0 389.1,72.7 390.6,70.5 392.0,68.2 393.5,66.0 395.0,63.8 396.4,61.5 397.9,59.3 399.4,57.0 400.9,54.8 402.3,52.6 403.8,50.3 405.3,48.1 406.7,45.8 408.2,43.6 409.7,41.4 411.1,39.1 412.6,36.9 414.1,34.6 415.6,32.4 417.0,30.2 418.5,27.9 420.0,25.7 421.4,23.4 422.9,21.2 424.4,19.0" fill="none" stroke="#1f77b4" stroke-width="3"/>
<polyline points="26.0,338.0 27.5,337.4 28.9,336.9 30.4,336.3 31.9,335.8 33.3,335.2 34.8,334.6 36.3,334.1 37.8,333.5 39.2,333.0 40.7,332.4 42.2,331.8 43.6,331.3 45.1,330.7 46.6,330.2 48.1,329.6 49.5,329.0 51.0,328.5 52.5,327.9 53.9,327.4 55.4,326.8 56.9,326.2 58.3,325.7 59.8,325.1 61.3,324.6 62.8,324.0 64.2,323.4 65.7,322.9 67.2,322.3 68.6,321.8 70.1,321.2 71.6,320.6 73.0,320.1 74.5,319.5 76.0,319.0 77.4,318.4 78.9,317.8 80.4,317.3 81.9,316.7 83.3,316.2 84.8,315.6 86.3,315.0 87.7,314.5 89.2,313.9 90.7,313.4 92.2,312.8 93.6,312.2 95.1,311.7 96.6,311.1 98.0,310.6 99.5,310.0 101.0,309.4 102.4,308.9 103.9,308.3 105.4,307.8 106.8,307.2 108.3,306.6 109.8,306.1 111.3,305.5 112.7,305.0 114.2,304.4 115.7,303.8 117.1,303.3 118.6,302.7 120.1,302.2 121.6,301.6 123.0,301.0 124.5,300.5 126.0,299.9 127.4,299.4 128.9,298.8 130.4,298.2 131.8,297.7 133.3,297.1 134.8,296.6 136.2,296.0 137.7,295.4 139.2,294.9 140.7,294.3 142.1,293.8 143.6,293.2 145.1,292.6 146.5,292.1 148.0,291.5 149.5,291.0 150.9,290.4 152.4,289.8 153.9,289.3 155.4,288.7 156.8,288.2 158.3,287.6 159.8,287.0 161.2,286.5 162.7,285.9 164.2,285.4 165.7,284.8 167.1,284.2 168.6,283.7 170.1,283.1 171.5,282.6 173.0,282.0 174.5,281.4 175.9,280.9 177.4,280.3 178.9,279.8 180.3,279.2 181.8,278.6 183.3,278.1 184.8,277.5 186.2,277.0 187.7,276.4 189.2,275.8 190.6,275.3 192.1,274.7 193.6,274.2 195.1,273.6 196.5,273.0 198.0,272.5 199.5,271.9 200.9,271.4 202.4,270.8 203.9,270.2 205.3,269.7 206.8,269.1 208.3,268.6 209.8,268.0 211.2,267.4 212.7,266.9 214.2,266.3 215.6,265.8 217.1,265.2 218.6,264.6 220.0,264.1 221.5,263.5 223.0,263.0 224.4,262.4 225.9,261.8 227.4,261.3 228.9,260.7 230.3,260.2 231.8,259.6 233.3,259.0 234.7,258.5 236.2,257.9 237.7,257.4 239.2,256.8 240.6,256.2 242.1,255.7 243.6,255.1 245.0,254.6 246.5,254.0 248.0,253.4 249.4,252.9 250.9,252.3 252.4,251.8 253.8,251.2 255.3,250.6 256.8,250.1 258.3,249.5 259.7,249.0 261.2,248.4 262.7,247.8 264.1,247.3 265.6,246.7 267.1,246.2 268.6,245.6 270.0,245.0 271.5,244.5 273.0,243.9 274.4,243.4 275.9,242.8 277.4,242.2 278.8,241.7 280.3,241.1 281.8,240.6 283.2,240.0 284.7,239.4 286.2,238.9 287.7,238.3 289.1,237.8 290.6,237.2 292.1,236.6 293.5,236.1 295.0,235.5 296.5,235.0 297.9,234.4 299.4,233.8 300.9,233.3 302.4,232.7 303.8,232.2 305.3,231.6 306.8,231.0 308.2,230.5 309.7,229.9 311.2,229.4 312.7,228.8 314.1,228.2 315.6,227.7 317.1,227.1 318.5,226.6 320.0,226.0 321.5,225.4 322.9,224.9 324.4,224.3 325.9,223.8 327.3,223.2 328.8,222.6 330.3,222.1 331.8,221.5 333.2,221.0 334.7,220.4 336.2,219.8 337.6,219.3 339.1,218.7 340.6,218.2 342.1,217.6 343.5,217.0 345.0,216.5 346.5,215.9 347.9,215.4 349.4,214.8 350.9,214.2 352.3,213.7 353.8,213.1 355.3,212.6 356.8,212.0 358.2,211.4 359.7,210.9 361.2,210.3 362.6,209.8 364.1,209.2 365.6,208.6 367.0,208.1 368.5,207.5 370.0,207.0 371.4,206.4 372.9,205.8 374.4,205.3 375.9,204.7 377.3,204.2 378.8,203.6 380.3,203.0 381.7,202.5 383.2,201.9 384.7,201.4 386.1,200.8 387.6,200.2 389.1,199.7 390.6,199.1 392.0,198.6 393.5,198.0 395.0,197.4 396.4,196.9 397.9,196.3 399.4,195.8 400.9,195.2 402.3,194.6 403.8,194.1 405.3,193.5 406.7,193.0 408.2,192.4 409.7,191.8 411.1,191.3 412.6,190.7 414.1,190.2 415.6,189.6 417.0,189.0 418.5,188.5 420.0,187.9 421.4,187.4 422.9,186.8 424.4,186.2 425.8,185.7 427.3,185.1 428.8,184.6 430.2,184.0 431.7,183.4 433.2,182.9 434.7,182.3 436.1,181.8 437.6,181.2 439.1,180.6 440.5,180.1 442.0,179.5 443.5,179.0 444.9,178.4 446.4,177.8 447.9,177.3 449.4,176.7 450.8,176.2 452.3,175.6 453.8,175.0 455.2,174.5 456.7,173.9 458.2,173.4 459.6,172.8 461.1,172.2 462.6,171.7 464.1,171.1 465.5,170.6 467.0,170.0 468.5,169.4 469.9,168.9 471.4,168.3 472.9,167.8 474.4,167.2 475.8,166.6 477.3,166.1 478.8,165.5 480.2,165.0 481.7,164.4 483.2,163.8 484.6,163.3 486.1,162.7 487.6,162.2 489.1,161.6 490.5,161.0 492.0,160.5 493.5,159.9 494.9,159.4 496.4,158.8 497.9,158.2 499.3,157.7 500.8,157.1 502.3,156.6 503.8,156.0 505.2,155.4 506.7,154.9 508.2,154.3 509.6,153.8 511.1,153.2 512.6,152.6 514.0,152.1 515.5,151.5 517.0,151.0 518.5,150.4 519.9,149.8 521.4,149.3 522.9,148.7 524.3,148.2 525.8,147.6 527.3,147.0 528.7,146.5 530.2,145.9 531.7,145.4 533.1,144.8 534.6,144.2 536.1,143.7 537.6,143.1 539.0,142.6 540.5,142.0 542.0,141.4 543.4,140.9 544.9,140.3 546.4,139.8 547.9,139.2 549.3,138.6 550.8,138.1 552.3,137.5 553.7,137.0 555.2,136.4 556.7,135.8 558.1,135.3 559.6,134.7 561.1,134.2 562.5,133.6 564.0,133.0 565.5,132.5 567.0,131.9 568.4,131.4 569.9,130.8 571.4,130.2 572.8,129.7 574.3,129.1 575.8,128.6 577.2,128.0 578.7,127.4 580.2,126.9 581.7,126.3 583.1,125.8 584.6,125.2 586.1,124.6 587.5,124.1 589.0,123.5 590.5,123.0 592.0,122.4 593.4,121.8 594.9,121.3 596.4,120.7 597.8,120.2 599.3,119.6 600.8,119.0 602.2,118.5 603.7,117.9 605.2,117.4 606.6,116.8 608.1,116.2 609.6,115.7 611.1,115.1 612.5,114.6 614.0,114.0" fill="none" stroke="#d62728" stroke-width="3"/>
<polyline points="68.6,401.5 70.1,400.4 71.6,399.3 73.0,398.2 74.5,397.0 76.0,395.9 77.4,394.8 78.9,393.7 80.4,392.6 81.9,391.4 83.3,390.3 84.8,389.2 86.3,388.1 87.7,387.0 89.2,385.8 90.7,384.7 92.2,383.6 93.6,382.5 95.1,381.4 96.6,380.2 98.0,379.1 99.5,378.0 101.0,376.9 102.4,375.8 103.9,374.6 105.4,373.5 106.8,372.4 108.3,371.3 109.8,370.2 111.3,369.0 112.7,367.9 114.2,366.8 115.7,365.7 117.1,364.6 118.6,363.4 120.1,362.3 121.6,361.2 123.0,360.1 124.5,359.0 126.0,357.8 127.4,356.7 128.9,355.6 130.4,354.5 131.8,353.4 133.3,352.2 134.8,351.1 136.2,350.0 137.7,348.9 139.2,347.8 140.7,346.6 142.1,345.5 143.6,344.4 145.1,343.3 146.5,342.2 148.0,341.0 149.5,339.9 150.9,338.8 152.4,337.7 153.9,336.6 155.4,335.4 156.8,334.3 158.3,333.2 159.8,332.1 161.2,331.0 162.7,329.8 164.2,328.7 165.7,327.6 167.1,326.5 168.6,325.4 170.1,324.2 171.5,323.1 173.0,322.0 174.5,320.9 175.9,319.8 177.4,318.6 178.9,317.5 180.3,316.4 181.8,315.3 183.3,314.2 184.8,313.0 186.2,311.9 187.7,310.8 189.2,309.7 190.6,308.6 192.1,307.4 193.6,306.3 195.1,305.2 196.5,304.1 198.0,303.0 199.5,301.8 200.9,300.7 202.4,299.6 203.9,298.5 205.3,297.4 206.8,296.2 208.3,295.1 209.8,294.0 211.2,292.9 212.7,291.8 214.2,290.6 215.6,289.5 217.1,288.4 218.6,287.3 220.0,286.2 221.5,285.0 223.0,283.9 224.4,282.8 225.9,281.7 227.4,280.6 228.9,279.4 230.3,278.3 231.8,277.2 233.3,276.1 234.7,275.0 236.2,273.8 237.7,272.7 239.2,271.6 240.6,270.5 242.1,269.4 243.6,268.2 245.0,267.1 246.5,266.0 248.0,264.9 249.4,263.8 250.9,262.6 252.4,261.5 253.8,260.4 255.3,259.3 256.8,258.2 258.3,257.0 259.7,255.9 261.2,254.8 262.7,253.7 264.1,252.6 265.6,251.4 267.1,250.3 268.6,249.2 270.0,248.1 271.5,247.0 273.0,245.8 274.4,244.7 275.9,243.6 277.4,242.5 278.8,241.4 280.3,240.2 281.8,239.1 283.2,238.0 284.7,236.9 286.2,235.8 287.7,234.6 289.1,233.5 290.6,232.4 292.1,231.3 293.5,230.2 295.0,229.0 296.5,227.9 297.9,226.8 299.4,225.7 300.9,224.6 302.4,223.4 303.8,222.3 305.3,221.2 306.8,220.1 308.2,219.0 309.7,217.8 311.2,216.7 312.7,215.6 314.1,214.5 315.6,213.4 317.1,212.2 318.5,211.1 320.0,210.0 321.5,208.9 322.9,207.8 324.4,206.6 325.9,205.5 327.3,204.4 328.8,203.3 330.3,202.2 331.8,201.0 333.2,199.9 334.7,198.8 336.2,197.7 337.6,196.6 339.1,195.4 340.6,194.3 342.1,193.2 343.5,192.1 345.0,191.0 346.5,189.8 347.9,188.7 349.4,187.6 350.9,186.5 352.3,185.4 353.8,184.2 355.3,183.1 356.8,182.0 358.2,180.9 359.7,179.8 361.2,178.6 362.6,177.5 364.1,176.4 365.6,175.3 367.0,174.2 368.5,173.0 370.0,171.9 371.4,170.8 372.9,169.7 374.4,168.6 375.9,167.4 377.3,166.3 378.8,165.2 380.3,164.1 381.7,163.0 383.2,161.8 384.7,160.7 386.1,159.6 387.6,158.5 389.1,157.4 390.6,156.2 392.0,155.1 393.5,154.0 395.0,152.9 396.4,151.8 397.9,150.6 399.4,149.5 400.9,148.4 402.3,147.3 403.8,146.2 405.3,145.0 406.7,143.9 408.2,142.8 409.7,141.7 411.1,140.6 412.6,139.4 414.1,138.3 415.6,137.2 417.0,136.1 418.5,135.0 420.0,133.8 421.4,132.7 422.9,131.6 424.4,130.5 425.8,129.4 427.3,128.2 428.8,127.1 430.2,126.0 431.7,124.9 433.2,123.8 434.7,122.6 436.1,121.5 437.6,120.4 439.1,119.3 440.5,118.2 442.0,117.0 443.5,115.9 444.9,114.8 446.4,113.7 447.9,112.6 449.4,111.4 450.8,110.3 452.3,109.2 453.8,108.1 455.2,107.0 456.7,105.8 458.2,104.7 459.6,103.6 461.1,102.5 462.6,101.4 464.1,100.2 465.5,99.1 467.0,98.0 468.5,96.9 469.9,95.8 471.4,94.6 472.9,93.5 474.4,92.4 475.8,91.3 477.3,90.2 478.8,89.0 480.2,87.9 481.7,86.8 483.2,85.7 484.6,84.6 486.1,83.4 487.6,82.3 489.1,81.2 490.5,80.1 492.0,79.0 493.5,77.8 494.9,76.7 496.4,75.6 497.9,74.5 499.3,73.4 500.8,72.2 502.3,71.1 503.8,70.0 505.2,68.9 506.7,67.8 508.2,66.6 509.6,65.5 511.1,64.4 512.6,63.3 514.0,62.2 515.5,61.0 517.0,59.9 518.5,58.8 519.9,57.7 521.4,56.6 522.9,55.4 524.3,54.3 525.8,53.2 527.3,52.1 528.7,51.0 530.2,49.8 531.7,48.7 533.1,47.6 534.6,46.5 536.1,45.4 537.6,44.2 539.0,43.1 540.5,42.0 542.0,40.9 543.4,39.8 544.9,38.6 546.4,37.5 547.9,36.4 549.3,35.3 550.8,34.2 552.3,33.0 553.7,31.9 555.2,30.8 556.7,29.7 558.1,28.6 559.6,27.4 561.1,26.3 562.5,25.2 564.0,24.1 565.5,23.0 567.0,21.8 568.4,20.7 569.9,19.6 571.4,18.5" fill="none" stroke="#2ca02c" stroke-width="3"/>
<text x="320" y="22" text-anchor="middle" font-family="Arial" font-size="16">Reflection across y=x</text></svg>