<svg xmlns="http://www.w3.org/2000/svg" width="640" height="420" viewBox="0 0 640 420">
<rect width="640" height="420" fill="white" stroke="black"/>
<defs><marker id="arrow" markerWidth="10" markerHeight="10" refX="6" refY="3" orient="auto"><path d="M0,0 L0,6 L7,3 z" fill="black"/></marker></defs>
<line x1="30" y1="210" x2="610" y2="210" stroke="black" marker-end="url(#arrow)"/>
<line x1="320" y1="390" x2="320" y2="30" stroke="black" marker-end="url(#arrow)"/>
<line x1="68" y1="206" x2="68" y2="214" stroke="black"/><text x="68" y="228" font-size="10" text-anchor="middle">-6</text>
<line x1="316" y1="402" x2="324" y2="402" stroke="black"/><text x="312" y="406" font-size="10" text-anchor="end">-6</text>
<line x1="110" y1="206" x2="110" y2="214" stroke="black"/><text x="110" y="228" font-size="10" text-anchor="middle">-5</text>
<line x1="316" y1="370" x2="324" y2="370" stroke="black"/><text x="312" y="374" font-size="10" text-anchor="end">-5</text>
<line x1="152" y1="206" x2="152" y2="214" stroke="black"/><text x="152" y="228" font-size="10" text-anchor="middle">-4</text>
<line x1="316" y1="338" x2="324" y2="338" stroke="black"/><text x="312" y="342" font-size="10" text-anchor="end">-4</text>
<line x1="194" y1="206" x2="194" y2="214" stroke="black"/><text x="194" y="228" font-size="10" text-anchor="middle">-3</text>
<line x1="316" y1="306" x2="324" y2="306" stroke="black"/><text x="312" y="310" font-size="10" text-anchor="end">-3</text>
<line x1="236" y1="206" x2="236" y2="214" stroke="black"/><text x="236" y="228" font-size="10" text-anchor="middle">-2</text>
<line x1="316" y1="274" x2="324" y2="274" stroke="black"/><text x="312" y="278" font-size="10" text-anchor="end">-2</text>
<line x1="278" y1="206" x2="278" y2="214" stroke="black"/><text x="278" y="228" font-size="10" text-anchor="middle">-1</text>
<line x1="316" y1="242" x2="324" y2="242" stroke="black"/><text x="312" y="246" font-size="10" text-anchor="end">-1</text>
<line x1="320" y1="206" x2="320" y2="214" stroke="black"/><text x="320" y="228" font-size="10" text-anchor="middle">0</text>
<line x1="316" y1="210" x2="324" y2="210" stroke="black"/><text x="312" y="214" font-size="10" text-anchor="end">0</text>
<line x1="362" y1="206" x2="362" y2="214" stroke="black"/><text x="362" y="228" font-size="10" text-anchor="middle">1</text>
<line x1="316" y1="178" x2="324" y2="178" stroke="black"/><text x="312" y="182" font-size="10" text-anchor="end">1</text>
<line x1="404" y1="206" x2="404" y2="214" stroke="black"/><text x="404" y="228" font-size="10" text-anchor="middle">2</text>
<line x1="316" y1="146" x2="324" y2="146" stroke="black"/><text x="312" y="150" font-size="10" text-anchor="end">2</text>
<line x1="446" y1="206" x2="446" y2="214" stroke="black"/><text x="446" y="228" font-size="10" text-anchor="middle">3</text>
<line x1="316" y1="114" x2="324" y2="114" stroke="black"/><text x="312" y="118" font-size="10" text-anchor="end">3</text>
<line x1="488" y1="206" x2="488" y2="214" stroke="black"/><text x="488" y="228" font-size="10" text-anchor="middle">4</text>
<line x1="316" y1="82" x2="324" y2="82" stroke="black"/><text x="312" y="86" font-size="10" text-anchor="end">4</text>
<line x1="530" y1="206" x2="530" y2="214" stroke="black"/><text x="530" y="228" font-size="10" text-anchor="middle">5</text>
<line x1="316" y1="50" x2="324" y2="50" stroke="black"/><text x="312" y="54" font-size="10" text-anchor="end">5</text>
<line x1="572" y1="206" x2="572" y2="214" stroke="black"/><text x="572" y="228" font-size="10" text-anchor="middle">6</text>
<line x1="316" y1="18" x2="324" y2="18" stroke="black"/><text x="312" y="22" font-size="10" text-anchor="end">6</text>
<polyline points="320.0,210.0 321.5,204.0 322.9,201.5 324.4,199.6 325.9,198.0 327.3,196.6 328.8,195.3 330.3,194.2 331.8,193.1 333.2,192.0 334.7,191.1 336.2,190.1 337.6,189.3 339.1,188.4 340.6,187.6 342.1,186.8 343.5,186.1 345.0,185.3 346.5,184.6 347.9,183.9 349.4,183.2 350.9,182.6 352.3,181.9 353.8,181.3 355.3,180.7 356.8,180.1 358.2,179.5 359.7,178.9 361.2,178.3 362.6,177.8 364.1,177.2 365.6,176.7 367.0,176.1 368.5,175.6 370.0,175.1 371.4,174.6 372.9,174.1 374.4,173.6 375.9,173.1 377.3,172.6 378.8,172.1 380.3,171.7 381.7,171.2 383.2,170.7 384.7,170.3 386.1,169.8 387.6,169.4 389.1,169.0 390.6,168.5 392.0,168.1 393.5,167.7 395.0,167.2 396.4,166.8 397.9,166.4 399.4,166.0 400.9,165.6 402.3,165.2 403.8,164.8 405.3,164.4 406.7,164.0 408.2,163.6 409.7,163.2 411.1,162.9 412.6,162.5 414.1,162.1 415.6,161.7 417.0,161.4 418.5,161.0 420.0,160.6 421.4,160.3 422.9,159.9 424.4,159.6 425.8,159.2 427.3,158.9 428.8,158.5 430.2,158.2 431.7,157.8 433.2,157.5 434.7,157.1 436.1,156.8 437.6,156.5 439.1,156.1 440.5,155.8 442.0,155.5 443.5,155.1 444.9,154.8 446.4,154.5 447.9,154.2 449.4,153.8 450.8,153.5 452.3,153.2 453.8,152.9 455.2,152.6 456.7,152.3 458.2,152.0 459.6,151.6 461.1,151.3 462.6,151.0 464.1,150.7 465.5,150.4 467.0,150.1 468.5,149.8 469.9,149.5 471.4,149.2 472.9,148.9 474.4,148.7 475.8,148.4 477.3,148.1 478.8,147.8 480.2,147.5 481.7,147.2 483.2,146.9 484.6,146.6 486.1,146.4 487.6,146.1 489.1,145.8 490.5,145.5 492.0,145.2 493.5,145.0 494.9,144.7 496.4,144.4 497.9,144.1 499.3,143.9 500.8,143.6 502.3,143.3 503.8,143.1 505.2,142.8 506.7,142.5 508.2,142.3 509.6,142.0 511.1,141.7 512.6,141.5 514.0,141.2 515.5,141.0 517.0,140.7 518.5,140.4 519.9,140.2 521.4,139.9 522.9,139.7 524.3,139.4 525.8,139.2 527.3,138.9 528.7,138.7 530.2,138.4 531.7,138.2 533.1,137.9 534.6,137.7 536.1,137.4 537.6,137.2 539.0,136.9 540.5,136.7 542.0,136.4 543.4,136.2 544.9,135.9 546.4,135.7 547.9,135.5 549.3,135.2 550.8,135.0 552.3,134.7 553.7,134.5 555.2,134.3 556.7,134.0 558.1,133.8 559.6,133.6 561.1,133.3 562.5,133.1 564.0,132.9 565.5,132.6 567.0,132.4 568.4,132.2 569.9,131.9 571.4,131.7 572.8,131.5 574.3,131.3 575.8,131.0 577.2,130.8 578.7,130.6 580.2,130.4 581.7,130.1 583.1,129.9 584.6,129.7 586.1,129.5 587.5,129.2 589.0,129.0 590.5,128.8 592.0,128.6 593.4,128.4 594.9,128.1 596.4,127.9 597.8,127.7 599.3,127.5 600.8,127.3 602.2,127.0 603.7,126.8 605.2,126.6 606.6,126.4 608.1,126.2 609.6,126.0 611.1,125.8 612.5,125.5 614.0,125.3" fill="none" stroke="#1f77b4" stroke-width="3"/>
<text x="320" y="22" text-anchor="middle" font-family="Arial" font-size="16">Graph of x^(1/2)</text></svg>