<svg xmlns="http://www.w3.org/2000/svg" width="640" height="420" viewBox="0 0 640 420">
<rect width="640" height="420" fill="white" stroke="black"/>
<defs><marker id="arrow" markerWidth="10" markerHeight="10" refX="6" refY="3" orient="auto"><path d="M0,0 L0,6 L7,3 z" fill="black"/></marker></defs>
<line x1="30" y1="210" x2="610" y2="210" stroke="black" marker-end="url(#arrow)"/>
<line x1="320" y1="390" x2="320" y2="30" stroke="black" marker-end="url(#arrow)"/>
<line x1="68" y1="206" x2="68" y2="214" stroke="black"/><text x="68" y="228" font-size="10" text-anchor="middle">-6</text>
<line x1="316" y1="402" x2="324" y2="402" stroke="black"/><text x="312" y="406" font-size="10" text-anchor="end">-6</text>
<line x1="110" y1="206" x2="110" y2="214" stroke="black"/><text x="110" y="228" font-size="10" text-anchor="middle">-5</text>
<line x1="316" y1="370" x2="324" y2="370" stroke="black"/><text x="312" y="374" font-size="10" text-anchor="end">-5</text>
<line x1="152" y1="206" x2="152" y2="214" stroke="black"/><text x="152" y="228" font-size="10" text-anchor="middle">-4</text>
<line x1="316" y1="338" x2="324" y2="338" stroke="black"/><text x="312" y="342" font-size="10" text-anchor="end">-4</text>
<line x1="194" y1="206" x2="194" y2="214" stroke="black"/><text x="194" y="228" font-size="10" text-anchor="middle">-3</text>
<line x1="316" y1="306" x2="324" y2="306" stroke="black"/><text x="312" y="310" font-size="10" text-anchor="end">-3</text>
<line x1="236" y1="206" x2="236" y2="214" stroke="black"/><text x="236" y="228" font-size="10" text-anchor="middle">-2</text>
<line x1="316" y1="274" x2="324" y2="274" stroke="black"/><text x="312" y="278" font-size="10" text-anchor="end">-2</text>
<line x1="278" y1="206" x2="278" y2="214" stroke="black"/><text x="278" y="228" font-size="10" text-anchor="middle">-1</text>
<line x1="316" y1="242" x2="324" y2="242" stroke="black"/><text x="312" y="246" font-size="10" text-anchor="end">-1</text>
<line x1="320" y1="206" x2="320" y2="214" stroke="black"/><text x="320" y="228" font-size="10" text-anchor="middle">0</text>
<line x1="316" y1="210" x2="324" y2="210" stroke="black"/><text x="312" y="214" font-size="10" text-anchor="end">0</text>
<line x1="362" y1="206" x2="362" y2="214" stroke="black"/><text x="362" y="228" font-size="10" text-anchor="middle">1</text>
<line x1="316" y1="178" x2="324" y2="178" stroke="black"/><text x="312" y="182" font-size="10" text-anchor="end">1</text>
<line x1="404" y1="206" x2="404" y2="214" stroke="black"/><text x="404" y="228" font-size="10" text-anchor="middle">2</text>
<line x1="316" y1="146" x2="324" y2="146" stroke="black"/><text x="312" y="150" font-size="10" text-anchor="end">2</text>
<line x1="446" y1="206" x2="446" y2="214" stroke="black"/><text x="446" y="228" font-size="10" text-anchor="middle">3</text>
<line x1="316" y1="114" x2="324" y2="114" stroke="black"/><text x="312" y="118" font-size="10" text-anchor="end">3</text>
<line x1="488" y1="206" x2="488" y2="214" stroke="black"/><text x="488" y="228" font-size="10" text-anchor="middle">4</text>
<line x1="316" y1="82" x2="324" y2="82" stroke="black"/><text x="312" y="86" font-size="10" text-anchor="end">4</text>
<line x1="530" y1="206" x2="530" y2="214" stroke="black"/><text x="530" y="228" font-size="10" text-anchor="middle">5</text>
<line x1="316" y1="50" x2="324" y2="50" stroke="black"/><text x="312" y="54" font-size="10" text-anchor="end">5</text>
<line x1="572" y1="206" x2="572" y2="214" stroke="black"/><text x="572" y="228" font-size="10" text-anchor="middle">6</text>
<line x1="316" y1="18" x2="324" y2="18" stroke="black"/><text x="312" y="22" font-size="10" text-anchor="end">6</text>
<polyline points="320.0,210.0 321.5,204.0 322.9,201.5 324.4,199.6 325.9,198.0 327.3,196.6 328.8,195.3 330.3,194.2 331.8,193.1 333.2,192.0 334.7,191.1 336.2,190.1 337.6,189.3 339.1,188.4 340.6,187.6 342.1,186.8 343.5,186.1 345.0,185.3 346.5,184.6 347.9,183.9 349.4,183.2 350.9,182.6 352.3,181.9 353.8,181.3 355.3,180.7 356.8,180.1 358.2,179.5 359.7,178.9 361.2,178.3 362.6,177.8 364.1,177.2 365.6,176.7 367.0,176.1 368.5,175.6 370.0,175.1 371.4,174.6 372.9,174.1 374.4,173.6 375.9,173.1 377.3,172.6 378.8,172.1 380.3,171.7 381.7,171.2 383.2,170.7 384.7,170.3 386.1,169.8 387.6,169.4 389.1,169.0 390.6,168.5 392.0,168.1 393.5,167.7 395.0,167.2 396.4,166.8 397.9,166.4 399.4,166.0 400.9,165.6 402.3,165.2 403.8,164.8 405.3,164.4 406.7,164.0 408.2,163.6 409.7,163.2 411.1,162.9 412.6,162.5 414.1,162.1 415.6,161.7 417.0,161.4 418.5,161.0 420.0,160.6 421.4,160.3 422.9,159.9 424.4,159.6 425.8,159.2 427.3,158.9 428.8,158.5 430.2,158.2 431.7,157.8 433.2,157.5 434.7,157.1 436.1,156.8 437.6,156.5 439.1,156.1 440.5,155.8 442.0,155.5 443.5,155.1 444.9,154.8 446.4,154.5 447.9,154.2 449.4,153.8 450.8,153.5 452.3,153.2 453.8,152.9 455.2,152.6 456.7,152.3 458.2,152.0 459.6,151.6 461.1,151.3 462.6,151.0 464.1,150.7 465.5,150.4 467.0,150.1 468.5,149.8 469.9,149.5 471.4,149.2 472.9,148.9 474.4,148.7 475.8,148.4 477.3,148.1 478.8,147.8 480.2,147.5 481.7,147.2 483.2,146.9 484.6,146.6 486.1,146.4 487.6,146.1 489.1,145.8 490.5,145.5 492.0,145.2 493.5,145.0 494.9,144.7 496.4,144.4 497.9,144.1 499.3,143.9 500.8,143.6 502.3,143.3 503.8,143.1 505.2,142.8 506.7,142.5 508.2,142.3 509.6,142.0 511.1,141.7 512.6,141.5 514.0,141.2 515.5,141.0 517.0,140.7 518.5,140.4 519.9,140.2 521.4,139.9 522.9,139.7 524.3,139.4 525.8,139.2 527.3,138.9 528.7,138.7 530.2,138.4 531.7,138.2 533.1,137.9 534.6,137.7 536.1,137.4 537.6,137.2 539.0,136.9 540.5,136.7 542.0,136.4 543.4,136.2 544.9,135.9 546.4,135.7 547.9,135.5 549.3,135.2 550.8,135.0 552.3,134.7 553.7,134.5 555.2,134.3 556.7,134.0 558.1,133.8 559.6,133.6 561.1,133.3 562.5,133.1 564.0,132.9 565.5,132.6 567.0,132.4 568.4,132.2 569.9,131.9 571.4,131.7 572.8,131.5 574.3,131.3 575.8,131.0 577.2,130.8 578.7,130.6 580.2,130.4 581.7,130.1 583.1,129.9 584.6,129.7 586.1,129.5 587.5,129.2 589.0,129.0 590.5,128.8 592.0,128.6 593.4,128.4 594.9,128.1 596.4,127.9 597.8,127.7 599.3,127.5 600.8,127.3 602.2,127.0 603.7,126.8 605.2,126.6 606.6,126.4 608.1,126.2 609.6,126.0 611.1,125.8 612.5,125.5 614.0,125.3" fill="none" stroke="#1f77b4" stroke-width="3"/>
<polyline points="26.0,271.2 27.5,271.1 28.9,271.0 30.4,270.9 31.9,270.8 33.3,270.7 34.8,270.6 36.3,270.5 37.8,270.4 39.2,270.3 40.7,270.2 42.2,270.1 43.6,270.0 45.1,269.9 46.6,269.8 48.1,269.6 49.5,269.5 51.0,269.4 52.5,269.3 53.9,269.2 55.4,269.1 56.9,269.0 58.3,268.9 59.8,268.8 61.3,268.7 62.8,268.5 64.2,268.4 65.7,268.3 67.2,268.2 68.6,268.1 70.1,268.0 71.6,267.9 73.0,267.8 74.5,267.6 76.0,267.5 77.4,267.4 78.9,267.3 80.4,267.2 81.9,267.1 83.3,266.9 84.8,266.8 86.3,266.7 87.7,266.6 89.2,266.5 90.7,266.3 92.2,266.2 93.6,266.1 95.1,266.0 96.6,265.9 98.0,265.7 99.5,265.6 101.0,265.5 102.4,265.4 103.9,265.2 105.4,265.1 106.8,265.0 108.3,264.9 109.8,264.7 111.3,264.6 112.7,264.5 114.2,264.4 115.7,264.2 117.1,264.1 118.6,264.0 120.1,263.8 121.6,263.7 123.0,263.6 124.5,263.4 126.0,263.3 127.4,263.2 128.9,263.0 130.4,262.9 131.8,262.8 133.3,262.6 134.8,262.5 136.2,262.3 137.7,262.2 139.2,262.1 140.7,261.9 142.1,261.8 143.6,261.6 145.1,261.5 146.5,261.3 148.0,261.2 149.5,261.0 150.9,260.9 152.4,260.8 153.9,260.6 155.4,260.5 156.8,260.3 158.3,260.2 159.8,260.0 161.2,259.8 162.7,259.7 164.2,259.5 165.7,259.4 167.1,259.2 168.6,259.1 170.1,258.9 171.5,258.7 173.0,258.6 174.5,258.4 175.9,258.3 177.4,258.1 178.9,257.9 180.3,257.8 181.8,257.6 183.3,257.4 184.8,257.3 186.2,257.1 187.7,256.9 189.2,256.7 190.6,256.6 192.1,256.4 193.6,256.2 195.1,256.0 196.5,255.8 198.0,255.7 199.5,255.5 200.9,255.3 202.4,255.1 203.9,254.9 205.3,254.7 206.8,254.5 208.3,254.3 209.8,254.1 211.2,253.9 212.7,253.7 214.2,253.5 215.6,253.3 217.1,253.1 218.6,252.9 220.0,252.7 221.5,252.5 223.0,252.3 224.4,252.1 225.9,251.9 227.4,251.7 228.9,251.4 230.3,251.2 231.8,251.0 233.3,250.7 234.7,250.5 236.2,250.3 237.7,250.0 239.2,249.8 240.6,249.6 242.1,249.3 243.6,249.1 245.0,248.8 246.5,248.6 248.0,248.3 249.4,248.0 250.9,247.8 252.4,247.5 253.8,247.2 255.3,247.0 256.8,246.7 258.3,246.4 259.7,246.1 261.2,245.8 262.7,245.5 264.1,245.2 265.6,244.9 267.1,244.6 268.6,244.2 270.0,243.9 271.5,243.6 273.0,243.2 274.4,242.9 275.9,242.5 277.4,242.2 278.8,241.8 280.3,241.4 281.8,241.0 283.2,240.6 284.7,240.2 286.2,239.8 287.7,239.3 289.1,238.9 290.6,238.4 292.1,237.9 293.5,237.4 295.0,236.9 296.5,236.4 297.9,235.8 299.4,235.2 300.9,234.6 302.4,234.0 303.8,233.3 305.3,232.6 306.8,231.8 308.2,230.9 309.7,230.0 311.2,229.0 312.7,227.9 314.1,226.6 315.6,225.1 317.1,223.2 318.5,220.5 320.0,210.0 321.5,199.5 322.9,196.8 324.4,194.9 325.9,193.4 327.3,192.1 328.8,191.0 330.3,190.0 331.8,189.1 333.2,188.2 334.7,187.4 336.2,186.7 337.6,186.0 339.1,185.4 340.6,184.8 342.1,184.2 343.5,183.6 345.0,183.1 346.5,182.6 347.9,182.1 349.4,181.6 350.9,181.1 352.3,180.7 353.8,180.2 355.3,179.8 356.8,179.4 358.2,179.0 359.7,178.6 361.2,178.2 362.6,177.8 364.1,177.5 365.6,177.1 367.0,176.8 368.5,176.4 370.0,176.1 371.4,175.8 372.9,175.4 374.4,175.1 375.9,174.8 377.3,174.5 378.8,174.2 380.3,173.9 381.7,173.6 383.2,173.3 384.7,173.0 386.1,172.8 387.6,172.5 389.1,172.2 390.6,172.0 392.0,171.7 393.5,171.4 395.0,171.2 396.4,170.9 397.9,170.7 399.4,170.4 400.9,170.2 402.3,170.0 403.8,169.7 405.3,169.5 406.7,169.3 408.2,169.0 409.7,168.8 411.1,168.6 412.6,168.3 414.1,168.1 415.6,167.9 417.0,167.7 418.5,167.5 420.0,167.3 421.4,167.1 422.9,166.9 424.4,166.7 425.8,166.5 427.3,166.3 428.8,166.1 430.2,165.9 431.7,165.7 433.2,165.5 434.7,165.3 436.1,165.1 437.6,164.9 439.1,164.7 440.5,164.5 442.0,164.3 443.5,164.2 444.9,164.0 446.4,163.8 447.9,163.6 449.4,163.4 450.8,163.3 452.3,163.1 453.8,162.9 455.2,162.7 456.7,162.6 458.2,162.4 459.6,162.2 461.1,162.1 462.6,161.9 464.1,161.7 465.5,161.6 467.0,161.4 468.5,161.3 469.9,161.1 471.4,160.9 472.9,160.8 474.4,160.6 475.8,160.5 477.3,160.3 478.8,160.2 480.2,160.0 481.7,159.8 483.2,159.7 484.6,159.5 486.1,159.4 487.6,159.2 489.1,159.1 490.5,159.0 492.0,158.8 493.5,158.7 494.9,158.5 496.4,158.4 497.9,158.2 499.3,158.1 500.8,157.9 502.3,157.8 503.8,157.7 505.2,157.5 506.7,157.4 508.2,157.2 509.6,157.1 511.1,157.0 512.6,156.8 514.0,156.7 515.5,156.6 517.0,156.4 518.5,156.3 519.9,156.2 521.4,156.0 522.9,155.9 524.3,155.8 525.8,155.6 527.3,155.5 528.7,155.4 530.2,155.3 531.7,155.1 533.1,155.0 534.6,154.9 536.1,154.8 537.6,154.6 539.0,154.5 540.5,154.4 542.0,154.3 543.4,154.1 544.9,154.0 546.4,153.9 547.9,153.8 549.3,153.7 550.8,153.5 552.3,153.4 553.7,153.3 555.2,153.2 556.7,153.1 558.1,152.9 559.6,152.8 561.1,152.7 562.5,152.6 564.0,152.5 565.5,152.4 567.0,152.2 568.4,152.1 569.9,152.0 571.4,151.9 572.8,151.8 574.3,151.7 575.8,151.6 577.2,151.5 578.7,151.3 580.2,151.2 581.7,151.1 583.1,151.0 584.6,150.9 586.1,150.8 587.5,150.7 589.0,150.6 590.5,150.5 592.0,150.4 593.4,150.2 594.9,150.1 596.4,150.0 597.8,149.9 599.3,149.8 600.8,149.7 602.2,149.6 603.7,149.5 605.2,149.4 606.6,149.3 608.1,149.2 609.6,149.1 611.1,149.0 612.5,148.9 614.0,148.8" fill="none" stroke="#d62728" stroke-width="3"/>
<polyline points="26.0,92.9 27.5,93.3 28.9,93.7 30.4,94.1 31.9,94.5 33.3,94.9 34.8,95.3 36.3,95.7 37.8,96.0 39.2,96.4 40.7,96.8 42.2,97.2 43.6,97.6 45.1,98.0 46.6,98.4 48.1,98.8 49.5,99.2 51.0,99.6 52.5,100.0 53.9,100.4 55.4,100.8 56.9,101.2 58.3,101.7 59.8,102.1 61.3,102.5 62.8,102.9 64.2,103.3 65.7,103.7 67.2,104.1 68.6,104.5 70.1,104.9 71.6,105.3 73.0,105.8 74.5,106.2 76.0,106.6 77.4,107.0 78.9,107.4 80.4,107.8 81.9,108.2 83.3,108.7 84.8,109.1 86.3,109.5 87.7,109.9 89.2,110.4 90.7,110.8 92.2,111.2 93.6,111.6 95.1,112.1 96.6,112.5 98.0,112.9 99.5,113.3 101.0,113.8 102.4,114.2 103.9,114.6 105.4,115.1 106.8,115.5 108.3,115.9 109.8,116.4 111.3,116.8 112.7,117.2 114.2,117.7 115.7,118.1 117.1,118.6 118.6,119.0 120.1,119.5 121.6,119.9 123.0,120.3 124.5,120.8 126.0,121.2 127.4,121.7 128.9,122.1 130.4,122.6 131.8,123.0 133.3,123.5 134.8,123.9 136.2,124.4 137.7,124.9 139.2,125.3 140.7,125.8 142.1,126.2 143.6,126.7 145.1,127.2 146.5,127.6 148.0,128.1 149.5,128.6 150.9,129.0 152.4,129.5 153.9,130.0 155.4,130.4 156.8,130.9 158.3,131.4 159.8,131.9 161.2,132.3 162.7,132.8 164.2,133.3 165.7,133.8 167.1,134.3 168.6,134.8 170.1,135.3 171.5,135.7 173.0,136.2 174.5,136.7 175.9,137.2 177.4,137.7 178.9,138.2 180.3,138.7 181.8,139.2 183.3,139.7 184.8,140.2 186.2,140.7 187.7,141.2 189.2,141.7 190.6,142.3 192.1,142.8 193.6,143.3 195.1,143.8 196.5,144.3 198.0,144.9 199.5,145.4 200.9,145.9 202.4,146.4 203.9,147.0 205.3,147.5 206.8,148.0 208.3,148.6 209.8,149.1 211.2,149.6 212.7,150.2 214.2,150.7 215.6,151.3 217.1,151.8 218.6,152.4 220.0,153.0 221.5,153.5 223.0,154.1 224.4,154.6 225.9,155.2 227.4,155.8 228.9,156.4 230.3,156.9 231.8,157.5 233.3,158.1 234.7,158.7 236.2,159.3 237.7,159.9 239.2,160.5 240.6,161.1 242.1,161.7 243.6,162.3 245.0,162.9 246.5,163.5 248.0,164.2 249.4,164.8 250.9,165.4 252.4,166.0 253.8,166.7 255.3,167.3 256.8,168.0 258.3,168.6 259.7,169.3 261.2,170.0 262.7,170.6 264.1,171.3 265.6,172.0 267.1,172.7 268.6,173.4 270.0,174.1 271.5,174.8 273.0,175.5 274.4,176.2 275.9,176.9 277.4,177.7 278.8,178.4 280.3,179.2 281.8,180.0 283.2,180.7 284.7,181.5 286.2,182.3 287.7,183.1 289.1,183.9 290.6,184.8 292.1,185.6 293.5,186.5 295.0,187.4 296.5,188.3 297.9,189.2 299.4,190.1 300.9,191.1 302.4,192.1 303.8,193.1 305.3,194.1 306.8,195.2 308.2,196.3 309.7,197.5 311.2,198.7 312.7,200.0 314.1,201.4 315.6,202.9 317.1,204.6 318.5,206.6 320.0,210.0 321.5,206.6 322.9,204.6 324.4,202.9 325.9,201.4 327.3,200.0 328.8,198.7 330.3,197.5 331.8,196.3 333.2,195.2 334.7,194.1 336.2,193.1 337.6,192.1 339.1,191.1 340.6,190.1 342.1,189.2 343.5,188.3 345.0,187.4 346.5,186.5 347.9,185.6 349.4,184.8 350.9,183.9 352.3,183.1 353.8,182.3 355.3,181.5 356.8,180.7 358.2,180.0 359.7,179.2 361.2,178.4 362.6,177.7 364.1,176.9 365.6,176.2 367.0,175.5 368.5,174.8 370.0,174.1 371.4,173.4 372.9,172.7 374.4,172.0 375.9,171.3 377.3,170.6 378.8,170.0 380.3,169.3 381.7,168.6 383.2,168.0 384.7,167.3 386.1,166.7 387.6,166.0 389.1,165.4 390.6,164.8 392.0,164.2 393.5,163.5 395.0,162.9 396.4,162.3 397.9,161.7 399.4,161.1 400.9,160.5 402.3,159.9 403.8,159.3 405.3,158.7 406.7,158.1 408.2,157.5 409.7,156.9 411.1,156.4 412.6,155.8 414.1,155.2 415.6,154.6 417.0,154.1 418.5,153.5 420.0,153.0 421.4,152.4 422.9,151.8 424.4,151.3 425.8,150.7 427.3,150.2 428.8,149.6 430.2,149.1 431.7,148.6 433.2,148.0 434.7,147.5 436.1,147.0 437.6,146.4 439.1,145.9 440.5,145.4 442.0,144.9 443.5,144.3 444.9,143.8 446.4,143.3 447.9,142.8 449.4,142.3 450.8,141.7 452.3,141.2 453.8,140.7 455.2,140.2 456.7,139.7 458.2,139.2 459.6,138.7 461.1,138.2 462.6,137.7 464.1,137.2 465.5,136.7 467.0,136.2 468.5,135.7 469.9,135.3 471.4,134.8 472.9,134.3 474.4,133.8 475.8,133.3 477.3,132.8 478.8,132.3 480.2,131.9 481.7,131.4 483.2,130.9 484.6,130.4 486.1,130.0 487.6,129.5 489.1,129.0 490.5,128.6 492.0,128.1 493.5,127.6 494.9,127.2 496.4,126.7 497.9,126.2 499.3,125.8 500.8,125.3 502.3,124.9 503.8,124.4 505.2,123.9 506.7,123.5 508.2,123.0 509.6,122.6 511.1,122.1 512.6,121.7 514.0,121.2 515.5,120.8 517.0,120.3 518.5,119.9 519.9,119.5 521.4,119.0 522.9,118.6 524.3,118.1 525.8,117.7 527.3,117.2 528.7,116.8 530.2,116.4 531.7,115.9 533.1,115.5 534.6,115.1 536.1,114.6 537.6,114.2 539.0,113.8 540.5,113.3 542.0,112.9 543.4,112.5 544.9,112.1 546.4,111.6 547.9,111.2 549.3,110.8 550.8,110.4 552.3,109.9 553.7,109.5 555.2,109.1 556.7,108.7 558.1,108.2 559.6,107.8 561.1,107.4 562.5,107.0 564.0,106.6 565.5,106.2 567.0,105.8 568.4,105.3 569.9,104.9 571.4,104.5 572.8,104.1 574.3,103.7 575.8,103.3 577.2,102.9 578.7,102.5 580.2,102.1 581.7,101.7 583.1,101.2 584.6,100.8 586.1,100.4 587.5,100.0 589.0,99.6 590.5,99.2 592.0,98.8 593.4,98.4 594.9,98.0 596.4,97.6 597.8,97.2 599.3,96.8 600.8,96.4 602.2,96.0 603.7,95.7 605.2,95.3 606.6,94.9 608.1,94.5 609.6,94.1 611.1,93.7 612.5,93.3 614.0,92.9" fill="none" stroke="#2ca02c" stroke-width="3"/>
<text x="320" y="22" text-anchor="middle" font-family="Arial" font-size="16">Choose the matching rational exponent graph</text></svg>