<svg xmlns="http://www.w3.org/2000/svg" width="640" height="420" viewBox="0 0 640 420">
<rect width="640" height="420" fill="white" stroke="black"/>
<defs><marker id="arrow" markerWidth="10" markerHeight="10" refX="6" refY="3" orient="auto"><path d="M0,0 L0,6 L7,3 z" fill="black"/></marker></defs>
<line x1="30" y1="210" x2="610" y2="210" stroke="black" marker-end="url(#arrow)"/>
<line x1="320" y1="390" x2="320" y2="30" stroke="black" marker-end="url(#arrow)"/>
<line x1="68" y1="206" x2="68" y2="214" stroke="black"/><text x="68" y="228" font-size="10" text-anchor="middle">-6</text>
<line x1="316" y1="402" x2="324" y2="402" stroke="black"/><text x="312" y="406" font-size="10" text-anchor="end">-6</text>
<line x1="110" y1="206" x2="110" y2="214" stroke="black"/><text x="110" y="228" font-size="10" text-anchor="middle">-5</text>
<line x1="316" y1="370" x2="324" y2="370" stroke="black"/><text x="312" y="374" font-size="10" text-anchor="end">-5</text>
<line x1="152" y1="206" x2="152" y2="214" stroke="black"/><text x="152" y="228" font-size="10" text-anchor="middle">-4</text>
<line x1="316" y1="338" x2="324" y2="338" stroke="black"/><text x="312" y="342" font-size="10" text-anchor="end">-4</text>
<line x1="194" y1="206" x2="194" y2="214" stroke="black"/><text x="194" y="228" font-size="10" text-anchor="middle">-3</text>
<line x1="316" y1="306" x2="324" y2="306" stroke="black"/><text x="312" y="310" font-size="10" text-anchor="end">-3</text>
<line x1="236" y1="206" x2="236" y2="214" stroke="black"/><text x="236" y="228" font-size="10" text-anchor="middle">-2</text>
<line x1="316" y1="274" x2="324" y2="274" stroke="black"/><text x="312" y="278" font-size="10" text-anchor="end">-2</text>
<line x1="278" y1="206" x2="278" y2="214" stroke="black"/><text x="278" y="228" font-size="10" text-anchor="middle">-1</text>
<line x1="316" y1="242" x2="324" y2="242" stroke="black"/><text x="312" y="246" font-size="10" text-anchor="end">-1</text>
<line x1="320" y1="206" x2="320" y2="214" stroke="black"/><text x="320" y="228" font-size="10" text-anchor="middle">0</text>
<line x1="316" y1="210" x2="324" y2="210" stroke="black"/><text x="312" y="214" font-size="10" text-anchor="end">0</text>
<line x1="362" y1="206" x2="362" y2="214" stroke="black"/><text x="362" y="228" font-size="10" text-anchor="middle">1</text>
<line x1="316" y1="178" x2="324" y2="178" stroke="black"/><text x="312" y="182" font-size="10" text-anchor="end">1</text>
<line x1="404" y1="206" x2="404" y2="214" stroke="black"/><text x="404" y="228" font-size="10" text-anchor="middle">2</text>
<line x1="316" y1="146" x2="324" y2="146" stroke="black"/><text x="312" y="150" font-size="10" text-anchor="end">2</text>
<line x1="446" y1="206" x2="446" y2="214" stroke="black"/><text x="446" y="228" font-size="10" text-anchor="middle">3</text>
<line x1="316" y1="114" x2="324" y2="114" stroke="black"/><text x="312" y="118" font-size="10" text-anchor="end">3</text>
<line x1="488" y1="206" x2="488" y2="214" stroke="black"/><text x="488" y="228" font-size="10" text-anchor="middle">4</text>
<line x1="316" y1="82" x2="324" y2="82" stroke="black"/><text x="312" y="86" font-size="10" text-anchor="end">4</text>
<line x1="530" y1="206" x2="530" y2="214" stroke="black"/><text x="530" y="228" font-size="10" text-anchor="middle">5</text>
<line x1="316" y1="50" x2="324" y2="50" stroke="black"/><text x="312" y="54" font-size="10" text-anchor="end">5</text>
<line x1="572" y1="206" x2="572" y2="214" stroke="black"/><text x="572" y="228" font-size="10" text-anchor="middle">6</text>
<line x1="316" y1="18" x2="324" y2="18" stroke="black"/><text x="312" y="22" font-size="10" text-anchor="end">6</text>
<polyline points="489.1,268.9 490.5,266.2 492.0,264.1 493.5,262.5 494.9,261.0 496.4,259.7 497.9,258.5 499.3,257.4 500.8,256.3 502.3,255.3 503.8,254.4 505.2,253.5 506.7,252.7 508.2,251.8 509.6,251.0 511.1,250.3 512.6,249.5 514.0,248.8 515.5,248.1 517.0,247.4 518.5,246.8 519.9,246.1 521.4,245.5 522.9,244.8 524.3,244.2 525.8,243.6 527.3,243.1 528.7,242.5 530.2,241.9 531.7,241.4 533.1,240.8 534.6,240.3 536.1,239.8 537.6,239.2 539.0,238.7 540.5,238.2 542.0,237.7 543.4,237.2 544.9,236.8 546.4,236.3 547.9,235.8 549.3,235.3 550.8,234.9 552.3,234.4 553.7,234.0 555.2,233.5 556.7,233.1 558.1,232.6 559.6,232.2 561.1,231.8 562.5,231.4 564.0,230.9 565.5,230.5 567.0,230.1 568.4,229.7 569.9,229.3 571.4,228.9 572.8,228.5 574.3,228.1 575.8,227.7 577.2,227.4 578.7,227.0 580.2,226.6 581.7,226.2 583.1,225.8 584.6,225.5 586.1,225.1 587.5,224.7 589.0,224.4 590.5,224.0 592.0,223.7 593.4,223.3 594.9,223.0 596.4,222.6 597.8,222.3 599.3,221.9 600.8,221.6 602.2,221.2 603.7,220.9 605.2,220.5 606.6,220.2 608.1,219.9 609.6,219.6 611.1,219.2 612.5,218.9 614.0,218.6" fill="none" stroke="#1f77b4" stroke-width="3"/>
<circle cx="488" cy="274" r="5" fill="black"/><text x="496" y="266" font-size="12">locator</text>
<text x="320" y="22" text-anchor="middle" font-family="Arial" font-size="16">Multi-representation rational exponent graph</text></svg>