<svg xmlns="http://www.w3.org/2000/svg" width="640" height="420" viewBox="0 0 640 420">
<rect width="640" height="420" fill="white" stroke="black"/>
<defs><marker id="arrow" markerWidth="10" markerHeight="10" refX="6" refY="3" orient="auto"><path d="M0,0 L0,6 L7,3 z" fill="black"/></marker></defs>
<line x1="30" y1="210" x2="610" y2="210" stroke="black" marker-end="url(#arrow)"/>
<line x1="320" y1="390" x2="320" y2="30" stroke="black" marker-end="url(#arrow)"/>
<line x1="68" y1="206" x2="68" y2="214" stroke="black"/><text x="68" y="228" font-size="10" text-anchor="middle">-6</text>
<line x1="316" y1="402" x2="324" y2="402" stroke="black"/><text x="312" y="406" font-size="10" text-anchor="end">-6</text>
<line x1="110" y1="206" x2="110" y2="214" stroke="black"/><text x="110" y="228" font-size="10" text-anchor="middle">-5</text>
<line x1="316" y1="370" x2="324" y2="370" stroke="black"/><text x="312" y="374" font-size="10" text-anchor="end">-5</text>
<line x1="152" y1="206" x2="152" y2="214" stroke="black"/><text x="152" y="228" font-size="10" text-anchor="middle">-4</text>
<line x1="316" y1="338" x2="324" y2="338" stroke="black"/><text x="312" y="342" font-size="10" text-anchor="end">-4</text>
<line x1="194" y1="206" x2="194" y2="214" stroke="black"/><text x="194" y="228" font-size="10" text-anchor="middle">-3</text>
<line x1="316" y1="306" x2="324" y2="306" stroke="black"/><text x="312" y="310" font-size="10" text-anchor="end">-3</text>
<line x1="236" y1="206" x2="236" y2="214" stroke="black"/><text x="236" y="228" font-size="10" text-anchor="middle">-2</text>
<line x1="316" y1="274" x2="324" y2="274" stroke="black"/><text x="312" y="278" font-size="10" text-anchor="end">-2</text>
<line x1="278" y1="206" x2="278" y2="214" stroke="black"/><text x="278" y="228" font-size="10" text-anchor="middle">-1</text>
<line x1="316" y1="242" x2="324" y2="242" stroke="black"/><text x="312" y="246" font-size="10" text-anchor="end">-1</text>
<line x1="320" y1="206" x2="320" y2="214" stroke="black"/><text x="320" y="228" font-size="10" text-anchor="middle">0</text>
<line x1="316" y1="210" x2="324" y2="210" stroke="black"/><text x="312" y="214" font-size="10" text-anchor="end">0</text>
<line x1="362" y1="206" x2="362" y2="214" stroke="black"/><text x="362" y="228" font-size="10" text-anchor="middle">1</text>
<line x1="316" y1="178" x2="324" y2="178" stroke="black"/><text x="312" y="182" font-size="10" text-anchor="end">1</text>
<line x1="404" y1="206" x2="404" y2="214" stroke="black"/><text x="404" y="228" font-size="10" text-anchor="middle">2</text>
<line x1="316" y1="146" x2="324" y2="146" stroke="black"/><text x="312" y="150" font-size="10" text-anchor="end">2</text>
<line x1="446" y1="206" x2="446" y2="214" stroke="black"/><text x="446" y="228" font-size="10" text-anchor="middle">3</text>
<line x1="316" y1="114" x2="324" y2="114" stroke="black"/><text x="312" y="118" font-size="10" text-anchor="end">3</text>
<line x1="488" y1="206" x2="488" y2="214" stroke="black"/><text x="488" y="228" font-size="10" text-anchor="middle">4</text>
<line x1="316" y1="82" x2="324" y2="82" stroke="black"/><text x="312" y="86" font-size="10" text-anchor="end">4</text>
<line x1="530" y1="206" x2="530" y2="214" stroke="black"/><text x="530" y="228" font-size="10" text-anchor="middle">5</text>
<line x1="316" y1="50" x2="324" y2="50" stroke="black"/><text x="312" y="54" font-size="10" text-anchor="end">5</text>
<line x1="572" y1="206" x2="572" y2="214" stroke="black"/><text x="572" y="228" font-size="10" text-anchor="middle">6</text>
<line x1="316" y1="18" x2="324" y2="18" stroke="black"/><text x="312" y="22" font-size="10" text-anchor="end">6</text>
<polyline points="26.0,271.2 27.5,271.1 28.9,271.0 30.4,270.9 31.9,270.8 33.3,270.7 34.8,270.6 36.3,270.5 37.8,270.4 39.2,270.3 40.7,270.2 42.2,270.1 43.6,270.0 45.1,269.9 46.6,269.8 48.1,269.6 49.5,269.5 51.0,269.4 52.5,269.3 53.9,269.2 55.4,269.1 56.9,269.0 58.3,268.9 59.8,268.8 61.3,268.7 62.8,268.5 64.2,268.4 65.7,268.3 67.2,268.2 68.6,268.1 70.1,268.0 71.6,267.9 73.0,267.8 74.5,267.6 76.0,267.5 77.4,267.4 78.9,267.3 80.4,267.2 81.9,267.1 83.3,266.9 84.8,266.8 86.3,266.7 87.7,266.6 89.2,266.5 90.7,266.3 92.2,266.2 93.6,266.1 95.1,266.0 96.6,265.9 98.0,265.7 99.5,265.6 101.0,265.5 102.4,265.4 103.9,265.2 105.4,265.1 106.8,265.0 108.3,264.9 109.8,264.7 111.3,264.6 112.7,264.5 114.2,264.4 115.7,264.2 117.1,264.1 118.6,264.0 120.1,263.8 121.6,263.7 123.0,263.6 124.5,263.4 126.0,263.3 127.4,263.2 128.9,263.0 130.4,262.9 131.8,262.8 133.3,262.6 134.8,262.5 136.2,262.3 137.7,262.2 139.2,262.1 140.7,261.9 142.1,261.8 143.6,261.6 145.1,261.5 146.5,261.3 148.0,261.2 149.5,261.0 150.9,260.9 152.4,260.8 153.9,260.6 155.4,260.5 156.8,260.3 158.3,260.2 159.8,260.0 161.2,259.8 162.7,259.7 164.2,259.5 165.7,259.4 167.1,259.2 168.6,259.1 170.1,258.9 171.5,258.7 173.0,258.6 174.5,258.4 175.9,258.3 177.4,258.1 178.9,257.9 180.3,257.8 181.8,257.6 183.3,257.4 184.8,257.3 186.2,257.1 187.7,256.9 189.2,256.7 190.6,256.6 192.1,256.4 193.6,256.2 195.1,256.0 196.5,255.8 198.0,255.7 199.5,255.5 200.9,255.3 202.4,255.1 203.9,254.9 205.3,254.7 206.8,254.5 208.3,254.3 209.8,254.1 211.2,253.9 212.7,253.7 214.2,253.5 215.6,253.3 217.1,253.1 218.6,252.9 220.0,252.7 221.5,252.5 223.0,252.3 224.4,252.1 225.9,251.9 227.4,251.7 228.9,251.4 230.3,251.2 231.8,251.0 233.3,250.7 234.7,250.5 236.2,250.3 237.7,250.0 239.2,249.8 240.6,249.6 242.1,249.3 243.6,249.1 245.0,248.8 246.5,248.6 248.0,248.3 249.4,248.0 250.9,247.8 252.4,247.5 253.8,247.2 255.3,247.0 256.8,246.7 258.3,246.4 259.7,246.1 261.2,245.8 262.7,245.5 264.1,245.2 265.6,244.9 267.1,244.6 268.6,244.2 270.0,243.9 271.5,243.6 273.0,243.2 274.4,242.9 275.9,242.5 277.4,242.2 278.8,241.8 280.3,241.4 281.8,241.0 283.2,240.6 284.7,240.2 286.2,239.8 287.7,239.3 289.1,238.9 290.6,238.4 292.1,237.9 293.5,237.4 295.0,236.9 296.5,236.4 297.9,235.8 299.4,235.2 300.9,234.6 302.4,234.0 303.8,233.3 305.3,232.6 306.8,231.8 308.2,230.9 309.7,230.0 311.2,229.0 312.7,227.9 314.1,226.6 315.6,225.1 317.1,223.2 318.5,220.5 320.0,210.0 321.5,199.5 322.9,196.8 324.4,194.9 325.9,193.4 327.3,192.1 328.8,191.0 330.3,190.0 331.8,189.1 333.2,188.2 334.7,187.4 336.2,186.7 337.6,186.0 339.1,185.4 340.6,184.8 342.1,184.2 343.5,183.6 345.0,183.1 346.5,182.6 347.9,182.1 349.4,181.6 350.9,181.1 352.3,180.7 353.8,180.2 355.3,179.8 356.8,179.4 358.2,179.0 359.7,178.6 361.2,178.2 362.6,177.8 364.1,177.5 365.6,177.1 367.0,176.8 368.5,176.4 370.0,176.1 371.4,175.8 372.9,175.4 374.4,175.1 375.9,174.8 377.3,174.5 378.8,174.2 380.3,173.9 381.7,173.6 383.2,173.3 384.7,173.0 386.1,172.8 387.6,172.5 389.1,172.2 390.6,172.0 392.0,171.7 393.5,171.4 395.0,171.2 396.4,170.9 397.9,170.7 399.4,170.4 400.9,170.2 402.3,170.0 403.8,169.7 405.3,169.5 406.7,169.3 408.2,169.0 409.7,168.8 411.1,168.6 412.6,168.3 414.1,168.1 415.6,167.9 417.0,167.7 418.5,167.5 420.0,167.3 421.4,167.1 422.9,166.9 424.4,166.7 425.8,166.5 427.3,166.3 428.8,166.1 430.2,165.9 431.7,165.7 433.2,165.5 434.7,165.3 436.1,165.1 437.6,164.9 439.1,164.7 440.5,164.5 442.0,164.3 443.5,164.2 444.9,164.0 446.4,163.8 447.9,163.6 449.4,163.4 450.8,163.3 452.3,163.1 453.8,162.9 455.2,162.7 456.7,162.6 458.2,162.4 459.6,162.2 461.1,162.1 462.6,161.9 464.1,161.7 465.5,161.6 467.0,161.4 468.5,161.3 469.9,161.1 471.4,160.9 472.9,160.8 474.4,160.6 475.8,160.5 477.3,160.3 478.8,160.2 480.2,160.0 481.7,159.8 483.2,159.7 484.6,159.5 486.1,159.4 487.6,159.2 489.1,159.1 490.5,159.0 492.0,158.8 493.5,158.7 494.9,158.5 496.4,158.4 497.9,158.2 499.3,158.1 500.8,157.9 502.3,157.8 503.8,157.7 505.2,157.5 506.7,157.4 508.2,157.2 509.6,157.1 511.1,157.0 512.6,156.8 514.0,156.7 515.5,156.6 517.0,156.4 518.5,156.3 519.9,156.2 521.4,156.0 522.9,155.9 524.3,155.8 525.8,155.6 527.3,155.5 528.7,155.4 530.2,155.3 531.7,155.1 533.1,155.0 534.6,154.9 536.1,154.8 537.6,154.6 539.0,154.5 540.5,154.4 542.0,154.3 543.4,154.1 544.9,154.0 546.4,153.9 547.9,153.8 549.3,153.7 550.8,153.5 552.3,153.4 553.7,153.3 555.2,153.2 556.7,153.1 558.1,152.9 559.6,152.8 561.1,152.7 562.5,152.6 564.0,152.5 565.5,152.4 567.0,152.2 568.4,152.1 569.9,152.0 571.4,151.9 572.8,151.8 574.3,151.7 575.8,151.6 577.2,151.5 578.7,151.3 580.2,151.2 581.7,151.1 583.1,151.0 584.6,150.9 586.1,150.8 587.5,150.7 589.0,150.6 590.5,150.5 592.0,150.4 593.4,150.2 594.9,150.1 596.4,150.0 597.8,149.9 599.3,149.8 600.8,149.7 602.2,149.6 603.7,149.5 605.2,149.4 606.6,149.3 608.1,149.2 609.6,149.1 611.1,149.0 612.5,148.9 614.0,148.8" fill="none" stroke="#1f77b4" stroke-width="3"/>
<text x="320" y="22" text-anchor="middle" font-family="Arial" font-size="16">Graph of x^(1/3)</text></svg>