<svg xmlns="http://www.w3.org/2000/svg" width="640" height="420" viewBox="0 0 640 420">
<rect width="640" height="420" fill="white" stroke="black"/>
<defs><marker id="arrow" markerWidth="10" markerHeight="10" refX="6" refY="3" orient="auto"><path d="M0,0 L0,6 L7,3 z" fill="black"/></marker></defs>
<line x1="30" y1="210" x2="610" y2="210" stroke="black" marker-end="url(#arrow)"/>
<line x1="320" y1="390" x2="320" y2="30" stroke="black" marker-end="url(#arrow)"/>
<line x1="68" y1="206" x2="68" y2="214" stroke="black"/><text x="68" y="228" font-size="10" text-anchor="middle">-6</text>
<line x1="316" y1="402" x2="324" y2="402" stroke="black"/><text x="312" y="406" font-size="10" text-anchor="end">-6</text>
<line x1="110" y1="206" x2="110" y2="214" stroke="black"/><text x="110" y="228" font-size="10" text-anchor="middle">-5</text>
<line x1="316" y1="370" x2="324" y2="370" stroke="black"/><text x="312" y="374" font-size="10" text-anchor="end">-5</text>
<line x1="152" y1="206" x2="152" y2="214" stroke="black"/><text x="152" y="228" font-size="10" text-anchor="middle">-4</text>
<line x1="316" y1="338" x2="324" y2="338" stroke="black"/><text x="312" y="342" font-size="10" text-anchor="end">-4</text>
<line x1="194" y1="206" x2="194" y2="214" stroke="black"/><text x="194" y="228" font-size="10" text-anchor="middle">-3</text>
<line x1="316" y1="306" x2="324" y2="306" stroke="black"/><text x="312" y="310" font-size="10" text-anchor="end">-3</text>
<line x1="236" y1="206" x2="236" y2="214" stroke="black"/><text x="236" y="228" font-size="10" text-anchor="middle">-2</text>
<line x1="316" y1="274" x2="324" y2="274" stroke="black"/><text x="312" y="278" font-size="10" text-anchor="end">-2</text>
<line x1="278" y1="206" x2="278" y2="214" stroke="black"/><text x="278" y="228" font-size="10" text-anchor="middle">-1</text>
<line x1="316" y1="242" x2="324" y2="242" stroke="black"/><text x="312" y="246" font-size="10" text-anchor="end">-1</text>
<line x1="320" y1="206" x2="320" y2="214" stroke="black"/><text x="320" y="228" font-size="10" text-anchor="middle">0</text>
<line x1="316" y1="210" x2="324" y2="210" stroke="black"/><text x="312" y="214" font-size="10" text-anchor="end">0</text>
<line x1="362" y1="206" x2="362" y2="214" stroke="black"/><text x="362" y="228" font-size="10" text-anchor="middle">1</text>
<line x1="316" y1="178" x2="324" y2="178" stroke="black"/><text x="312" y="182" font-size="10" text-anchor="end">1</text>
<line x1="404" y1="206" x2="404" y2="214" stroke="black"/><text x="404" y="228" font-size="10" text-anchor="middle">2</text>
<line x1="316" y1="146" x2="324" y2="146" stroke="black"/><text x="312" y="150" font-size="10" text-anchor="end">2</text>
<line x1="446" y1="206" x2="446" y2="214" stroke="black"/><text x="446" y="228" font-size="10" text-anchor="middle">3</text>
<line x1="316" y1="114" x2="324" y2="114" stroke="black"/><text x="312" y="118" font-size="10" text-anchor="end">3</text>
<line x1="488" y1="206" x2="488" y2="214" stroke="black"/><text x="488" y="228" font-size="10" text-anchor="middle">4</text>
<line x1="316" y1="82" x2="324" y2="82" stroke="black"/><text x="312" y="86" font-size="10" text-anchor="end">4</text>
<line x1="530" y1="206" x2="530" y2="214" stroke="black"/><text x="530" y="228" font-size="10" text-anchor="middle">5</text>
<line x1="316" y1="50" x2="324" y2="50" stroke="black"/><text x="312" y="54" font-size="10" text-anchor="end">5</text>
<line x1="572" y1="206" x2="572" y2="214" stroke="black"/><text x="572" y="228" font-size="10" text-anchor="middle">6</text>
<line x1="316" y1="18" x2="324" y2="18" stroke="black"/><text x="312" y="22" font-size="10" text-anchor="end">6</text>
<polyline points="236.2,401.9 237.7,401.1 239.2,400.4 240.6,399.6 242.1,398.7 243.6,397.9 245.0,397.0 246.5,396.1 248.0,395.2 249.4,394.3 250.9,393.3 252.4,392.3 253.8,391.2 255.3,390.1 256.8,389.0 258.3,387.8 259.7,386.5 261.2,385.2 262.7,383.7 264.1,382.2 265.6,380.6 267.1,378.8 268.6,376.9 270.0,374.8 271.5,372.4 273.0,369.6 274.4,366.1 275.9,361.6 277.4,353.8 278.8,320.6 280.3,313.7 281.8,309.3 283.2,306.0 284.7,303.3 286.2,300.9 287.7,298.8 289.1,296.9 290.6,295.2 292.1,293.6 293.5,292.1 295.0,290.6 296.5,289.3 297.9,288.1 299.4,286.9 300.9,285.7 302.4,284.6 303.8,283.6 305.3,282.6 306.8,281.6 308.2,280.6 309.7,279.7 311.2,278.8 312.7,278.0 314.1,277.1 315.6,276.3 317.1,275.5 318.5,274.8 320.0,274.0 321.5,273.3 322.9,272.5 324.4,271.8 325.9,271.1 327.3,270.5 328.8,269.8 330.3,269.2 331.8,268.5 333.2,267.9 334.7,267.3 336.2,266.7 337.6,266.1 339.1,265.5 340.6,264.9 342.1,264.3 343.5,263.8 345.0,263.2 346.5,262.7 347.9,262.1 349.4,261.6 350.9,261.1 352.3,260.6 353.8,260.1 355.3,259.6 356.8,259.1 358.2,258.6 359.7,258.1 361.2,257.6 362.6,257.2 364.1,256.7 365.6,256.2 367.0,255.8 368.5,255.3 370.0,254.9 371.4,254.4 372.9,254.0 374.4,253.6 375.9,253.2 377.3,252.7 378.8,252.3 380.3,251.9 381.7,251.5 383.2,251.1 384.7,250.7 386.1,250.3 387.6,249.9 389.1,249.5 390.6,249.1 392.0,248.7 393.5,248.3 395.0,248.0 396.4,247.6 397.9,247.2 399.4,246.8 400.9,246.5 402.3,246.1 403.8,245.7 405.3,245.4 406.7,245.0 408.2,244.7 409.7,244.3 411.1,244.0 412.6,243.6 414.1,243.3 415.6,243.0 417.0,242.6 418.5,242.3 420.0,242.0 421.4,241.6 422.9,241.3 424.4,241.0 425.8,240.6 427.3,240.3 428.8,240.0 430.2,239.7 431.7,239.4 433.2,239.1 434.7,238.7 436.1,238.4 437.6,238.1 439.1,237.8 440.5,237.5 442.0,237.2 443.5,236.9 444.9,236.6 446.4,236.3 447.9,236.0 449.4,235.7 450.8,235.4 452.3,235.2 453.8,234.9 455.2,234.6 456.7,234.3 458.2,234.0 459.6,233.7 461.1,233.4 462.6,233.2 464.1,232.9 465.5,232.6 467.0,232.3 468.5,232.1 469.9,231.8 471.4,231.5 472.9,231.3 474.4,231.0 475.8,230.7 477.3,230.5 478.8,230.2 480.2,229.9 481.7,229.7 483.2,229.4 484.6,229.1 486.1,228.9 487.6,228.6 489.1,228.4 490.5,228.1 492.0,227.9 493.5,227.6 494.9,227.4 496.4,227.1 497.9,226.9 499.3,226.6 500.8,226.4 502.3,226.1 503.8,225.9 505.2,225.6 506.7,225.4 508.2,225.2 509.6,224.9 511.1,224.7 512.6,224.4 514.0,224.2 515.5,224.0 517.0,223.7 518.5,223.5 519.9,223.3 521.4,223.0 522.9,222.8 524.3,222.6 525.8,222.4 527.3,222.1 528.7,221.9 530.2,221.7 531.7,221.4 533.1,221.2 534.6,221.0 536.1,220.8 537.6,220.6 539.0,220.3 540.5,220.1 542.0,219.9 543.4,219.7 544.9,219.5 546.4,219.2 547.9,219.0 549.3,218.8 550.8,218.6 552.3,218.4 553.7,218.2 555.2,218.0 556.7,217.7 558.1,217.5 559.6,217.3 561.1,217.1 562.5,216.9 564.0,216.7 565.5,216.5 567.0,216.3 568.4,216.1 569.9,215.9 571.4,215.7 572.8,215.5 574.3,215.3 575.8,215.0 577.2,214.8 578.7,214.6 580.2,214.4 581.7,214.2 583.1,214.0 584.6,213.8 586.1,213.6 587.5,213.5 589.0,213.3 590.5,213.1 592.0,212.9 593.4,212.7 594.9,212.5 596.4,212.3 597.8,212.1 599.3,211.9 600.8,211.7 602.2,211.5 603.7,211.3 605.2,211.1 606.6,210.9 608.1,210.8 609.6,210.6 611.1,210.4 612.5,210.2 614.0,210.0" fill="none" stroke="#1f77b4" stroke-width="3"/>
<circle cx="278" cy="338" r="5" fill="black"/><text x="286" y="330" font-size="12">locator</text>
<text x="320" y="22" text-anchor="middle" font-family="Arial" font-size="16">Transformed cube-root/rational exponent graph</text></svg>